<svg width="1536" height="758" viewBox="0 0 1536 758" fill="none" xmlns="http://www.w3.org/2000/svg">
<path d="M1536 0H0V758H1536V0Z" fill="url(#paint0_linear_112_2156)"/>
<path d="M1212.95 639.403C1211.69 635.839 1209.6 632.626 1206.84 630.029C1204.09 627.432 1200.76 625.525 1197.12 624.466C1193.48 623.407 1189.64 623.227 1185.92 623.939C1182.2 624.652 1178.7 626.237 1175.71 628.564C1173.53 625.541 1170.75 622.996 1167.55 621.085C1164.34 619.174 1160.78 617.938 1157.08 617.452C1155.71 612.809 1153.33 608.527 1150.1 604.911C1146.88 601.296 1142.89 598.438 1138.42 596.542C1133.96 594.647 1129.13 593.76 1124.28 593.947C1119.43 594.134 1114.69 595.389 1110.38 597.622C1108.43 594.639 1105.77 592.179 1102.65 590.46C1099.52 588.742 1096.01 587.816 1092.44 587.765C1088.87 587.714 1085.34 588.54 1082.16 590.169C1078.99 591.797 1076.26 594.18 1074.22 597.107C1071.63 595.41 1068.66 594.349 1065.58 594.012C1062.49 593.675 1059.37 594.072 1056.46 595.169C1053.56 596.266 1050.96 598.032 1048.87 600.324C1046.78 602.616 1045.26 605.368 1044.45 608.356H1043.52C1037.42 608.355 1031.57 610.751 1027.22 615.024C1022.88 619.297 1020.4 625.104 1020.32 631.187C1019.73 631.072 1019.13 631.011 1018.53 631.005C1016.19 631.006 1013.92 631.862 1012.17 633.412C1010.41 634.961 1009.29 637.098 1009 639.418L1212.95 639.403Z" fill="#009245"/>
<g style="mix-blend-mode:multiply" opacity="0.5">
<g style="mix-blend-mode:multiply" opacity="0.5">
<path d="M1087.98 592.892C1103.42 592.892 1116.46 604.399 1120.61 620.18C1124.56 620.832 1128.32 622.322 1131.63 624.547C1134.95 626.773 1137.75 629.683 1139.84 633.081C1144.02 629.336 1149.43 627.248 1155.04 627.215C1159.23 627.298 1163.33 628.469 1166.93 630.612C1170.53 632.754 1173.51 635.794 1175.58 639.434H1212.92C1211.66 635.87 1209.57 632.657 1206.81 630.059C1204.06 627.462 1200.73 625.555 1197.09 624.496C1193.45 623.438 1189.61 623.257 1185.89 623.969C1182.17 624.682 1178.67 626.267 1175.68 628.594C1173.51 625.569 1170.74 623.021 1167.54 621.104C1164.34 619.188 1160.78 617.945 1157.08 617.452C1155.71 612.809 1153.33 608.526 1150.1 604.911C1146.88 601.296 1142.89 598.438 1138.42 596.542C1133.96 594.647 1129.13 593.76 1124.28 593.947C1119.43 594.134 1114.69 595.389 1110.38 597.622C1108.52 594.779 1106.02 592.41 1103.08 590.705C1100.13 589 1096.83 588.007 1093.43 587.805C1090.03 587.603 1086.63 588.198 1083.5 589.542C1080.38 590.886 1077.61 592.942 1075.42 595.545C1079.38 593.79 1083.65 592.886 1087.98 592.892Z" fill="#009245"/>
</g>
</g>
<path d="M1535.56 593.438V639.418H1320.83C1321.25 635.953 1322.93 632.762 1325.54 630.446C1328.16 628.131 1331.54 626.852 1335.04 626.851C1335.94 626.852 1336.83 626.938 1337.72 627.109C1337.83 618.034 1341.53 609.372 1348.01 602.999C1354.49 596.625 1363.23 593.054 1372.33 593.059H1373.69C1374.92 588.602 1377.18 584.497 1380.3 581.077C1383.41 577.658 1387.3 575.021 1391.63 573.382C1395.96 571.743 1400.62 571.149 1405.23 571.646C1409.83 572.144 1414.26 573.72 1418.14 576.247C1418.7 575.453 1419.29 574.689 1419.93 573.958C1420.31 573.503 1420.69 573.078 1421.09 572.639C1421.87 571.786 1422.7 570.981 1423.58 570.228C1424.9 569.101 1426.3 568.087 1427.79 567.196C1428.29 566.893 1428.79 566.59 1429.31 566.317L1430.83 565.529C1431.85 565.03 1432.89 564.589 1433.96 564.21C1434.01 564.216 1434.05 564.216 1434.1 564.21C1435.22 563.817 1436.36 563.488 1437.52 563.224C1438.11 563.088 1438.7 562.967 1439.3 562.876C1439.89 562.785 1440.5 562.679 1441.11 562.633C1441.71 562.588 1442.2 562.497 1442.75 562.466H1443.28H1444.8C1450.21 562.463 1455.54 563.807 1460.29 566.374C1465.05 568.942 1469.09 572.653 1472.05 577.172C1482.78 571.587 1495.21 570.159 1506.93 573.162C1518.66 576.165 1528.85 583.387 1535.56 593.438Z" fill="#009245"/>
<g style="mix-blend-mode:multiply" opacity="0.5">
<g style="mix-blend-mode:multiply" opacity="0.5">
<path d="M1535.56 593.438V621.317C1528.28 622.045 1521.42 625.06 1515.97 629.928C1512.85 624.857 1508.67 620.513 1503.72 617.192C1498.77 613.87 1493.17 611.648 1487.28 610.675C1481.08 587.162 1461.63 570.001 1438.64 570.001C1432.21 570.006 1425.86 571.365 1419.99 573.988C1420.37 573.533 1420.75 573.109 1421.15 572.669C1421.94 571.835 1422.77 571.016 1423.64 570.258C1424.96 569.136 1426.37 568.122 1427.85 567.226C1428.35 566.923 1428.85 566.62 1429.37 566.347L1430.89 565.559C1431.91 565.074 1432.94 564.649 1434.02 564.24C1434.07 564.246 1434.11 564.246 1434.16 564.24C1435.28 563.855 1436.42 563.526 1437.58 563.255C1438.17 563.118 1438.76 562.997 1439.36 562.906C1439.95 562.815 1440.56 562.709 1441.17 562.663C1441.77 562.618 1442.26 562.527 1442.81 562.497H1443.34H1444.86C1450.27 562.494 1455.6 563.837 1460.36 566.405C1465.11 568.972 1469.16 572.683 1472.11 577.202C1482.84 571.632 1495.24 570.209 1506.95 573.205C1518.66 576.202 1528.85 583.407 1535.56 593.438Z" fill="#009245"/>
</g>
</g>
<path d="M1536 636.321H0V758H1536V636.321Z" fill="white"/>
<g style="mix-blend-mode:multiply" opacity="0.7">
<path d="M1244.25 674.317C1364.24 674.317 1461.5 671.744 1461.5 668.571C1461.5 665.398 1364.24 662.825 1244.25 662.825C1124.26 662.825 1027 665.398 1027 668.571C1027 671.744 1124.26 674.317 1244.25 674.317Z" fill="#B3B3B3"/>
</g>
<path d="M1199.64 537.695C1200.32 538.751 1200.66 539.983 1200.64 541.237C1200.61 542.49 1200.22 543.708 1199.5 544.736C1198.78 545.764 1197.77 546.557 1196.6 547.013C1195.43 547.469 1194.15 547.569 1192.92 547.299C1191.69 547.03 1190.57 546.403 1189.7 545.499C1188.83 544.595 1188.25 543.453 1188.03 542.219C1187.81 540.985 1187.96 539.713 1188.47 538.565C1188.97 537.417 1189.81 536.444 1190.87 535.77C1192.29 534.866 1194.01 534.561 1195.65 534.922C1197.3 535.283 1198.73 536.28 1199.64 537.695Z" fill="#A1BFCA"/>
<path d="M1204.2 556.827C1203.41 557.323 1202.45 557.488 1201.54 557.287C1200.62 557.086 1199.83 556.533 1199.32 555.75L1194.01 547.443L1183.04 530.266C1182.54 529.478 1182.37 528.523 1182.57 527.611C1182.77 526.699 1183.33 525.904 1184.12 525.4C1184.68 525.036 1185.33 524.841 1186 524.839C1186.61 524.833 1187.2 524.98 1187.74 525.267C1188.27 525.553 1188.72 525.969 1189.04 526.476L1202.47 547.443L1205.32 551.991C1205.81 552.783 1205.96 553.733 1205.75 554.638C1205.54 555.542 1204.98 556.327 1204.2 556.827Z" fill="white"/>
<g style="mix-blend-mode:multiply">
<path d="M1204.2 556.827C1203.41 557.323 1202.45 557.489 1201.54 557.287C1200.62 557.086 1199.83 556.534 1199.32 555.75L1194.01 547.443H1202.42L1205.28 551.991C1205.77 552.778 1205.93 553.724 1205.72 554.628C1205.52 555.531 1204.98 556.32 1204.2 556.827Z" fill="#4D4D4D"/>
</g>
<path d="M1201.16 563.164H1139.39V547.898L1139.6 547.761L1168.14 529.084C1168.14 529.084 1187.48 533.905 1196.6 547.761C1199.61 552.332 1201.2 557.692 1201.16 563.164Z" fill="black"/>
<path d="M1294.24 474.508C1294.24 474.508 1327.39 482.998 1331.98 529.311L1313.12 570.895H1376.75L1391.4 514.955C1391.4 514.955 1365.68 448.357 1294.24 474.508Z" fill="black"/>
<path d="M1146.36 553.294H1376.75L1331.98 628.534H1196.14L1146.36 567.909V553.294Z" fill="black"/>
<path d="M1322.38 448.584C1288.62 445.916 1242.96 456.665 1203.7 473.462C1160.15 492.109 1124.41 518.169 1121.46 541.682C1121.46 541.879 1121.46 542.061 1121.46 542.258C1121.21 544.735 1121.35 547.237 1121.88 549.671C1121.89 549.784 1121.92 549.896 1121.95 550.005C1122.68 553.262 1123.66 556.46 1124.87 559.571L1125.75 561.769C1142.17 601.033 1192.45 638.782 1192.45 638.782H1318.72C1353.1 638.782 1402.44 561.981 1407.68 538.862C1412.92 515.743 1390.61 453.966 1322.38 448.584ZM1366.38 540.772C1364.03 548.185 1356.35 565.786 1344.36 584.736C1328.72 609.583 1317.61 617.861 1314.44 619.058H1211.8C1202.8 610.983 1194.26 602.403 1186.23 593.362C1173.11 578.43 1166.67 567.712 1163.43 560.859C1162.24 558.305 1161.79 555.472 1162.13 552.676C1162.46 549.881 1163.57 547.234 1165.33 545.032C1173.89 534.572 1190.67 520.67 1214.41 508.163C1245.15 491.957 1279.59 482.3 1306.49 482.3C1309.88 482.3 1313.17 482.452 1316.3 482.74C1324.25 483.338 1331.96 485.763 1338.81 489.827C1345.67 493.89 1351.49 499.481 1355.82 506.162C1361.87 515.056 1365.69 525.265 1366.98 535.936C1367.1 537.571 1366.9 539.215 1366.38 540.772Z" fill="white"/>
<g style="mix-blend-mode:multiply" opacity="0.5">
<path d="M1376.69 533.192C1375.32 521.342 1371.15 509.984 1364.53 500.052C1354.09 484.498 1339.48 475.721 1321.24 473.962C1317.83 473.629 1314.22 473.462 1310.51 473.462C1281.03 473.462 1243.32 484.225 1209.66 502.266C1183.65 516.183 1165.27 531.691 1155.89 543.334C1153.96 545.792 1152.74 548.732 1152.37 551.832C1152 554.933 1152.49 558.076 1153.78 560.92C1157.26 568.5 1164.31 580.476 1178.69 597.076C1187.47 607.156 1196.82 616.723 1206.71 625.729H1319.19C1322.64 624.38 1334.8 615.117 1351.96 587.51C1365.08 566.286 1373.48 546.745 1376.08 538.468C1376.63 536.766 1376.83 534.973 1376.69 533.192ZM1366.38 540.772C1364.03 548.185 1356.35 565.786 1344.36 584.736C1328.72 609.583 1317.61 617.861 1314.44 619.058H1211.8C1202.8 610.983 1194.26 602.403 1186.23 593.362C1173.11 578.43 1166.67 567.712 1163.43 560.859C1162.24 558.305 1161.79 555.472 1162.13 552.676C1162.46 549.881 1163.57 547.234 1165.33 545.032C1173.89 534.572 1190.67 520.67 1214.41 508.163C1245.15 491.957 1279.59 482.3 1306.49 482.3C1309.88 482.3 1313.17 482.452 1316.3 482.74C1324.25 483.338 1331.96 485.763 1338.81 489.827C1345.67 493.89 1351.49 499.481 1355.82 506.162C1361.87 515.056 1365.69 525.265 1366.98 535.936C1367.1 537.571 1366.9 539.215 1366.38 540.772Z" fill="#A1BFCA"/>
</g>
<path d="M1282.28 512.636L1290.38 515.396L1276.1 557.084L1268 554.323C1266.75 553.897 1265.72 552.992 1265.14 551.808C1264.55 550.624 1264.47 549.258 1264.89 548.01L1275.97 515.69C1276.41 514.453 1277.31 513.439 1278.5 512.867C1279.68 512.295 1281.04 512.212 1282.28 512.636Z" fill="black"/>
<path d="M1274.5 561.754C1272.88 561.199 1271.55 560.027 1270.8 558.495C1270.05 556.964 1269.93 555.197 1270.49 553.582L1283.8 514.727C1284.36 513.115 1285.53 511.788 1287.07 511.037C1288.6 510.287 1290.37 510.175 1291.99 510.725C1293.61 511.28 1294.94 512.452 1295.69 513.984C1296.45 515.515 1296.56 517.282 1296.01 518.896L1282.69 557.751C1282.13 559.364 1280.96 560.691 1279.42 561.442C1277.89 562.192 1276.12 562.304 1274.5 561.754Z" fill="white"/>
<path d="M1394.52 611.433L1377.28 600.821V577.93C1377.28 576.229 1376.6 574.598 1375.4 573.395C1374.19 572.193 1372.56 571.517 1370.85 571.517H1358.69C1357.98 571.517 1357.27 571.687 1356.64 572.014C1356 572.341 1355.46 572.815 1355.04 573.397L1344.4 588.178C1344.08 588.542 1343.76 588.921 1343.46 589.33L1313.23 631.869C1312.15 633.388 1310.71 634.627 1309.05 635.481C1307.39 636.336 1305.55 636.781 1303.68 636.781H1202.06C1200.27 636.777 1198.51 636.366 1196.9 635.577C1195.3 634.789 1193.9 633.645 1192.81 632.233L1146.44 572.411C1144.34 569.727 1141.45 567.777 1138.17 566.845C1134.89 565.912 1131.4 566.046 1128.2 567.227C1126.78 564.195 1125.95 562.103 1125.95 562.103L1114.46 572.502L1113.7 572.79C1112.46 573.278 1111.38 574.071 1110.54 575.095C1109.48 576.428 1108.9 578.078 1108.89 579.779C1108.89 579.779 1079.41 595.97 1071.2 603.504C1069.15 605.455 1067.61 607.884 1066.73 610.573C1065.86 613.261 1065.66 616.125 1066.17 618.907L1066.52 620.757L1069.12 634.871C1069.12 635.265 1069.27 635.644 1069.36 636.023C1070.31 639.691 1072.45 642.942 1075.44 645.266C1078.44 647.59 1082.13 648.855 1085.93 648.863H1386.83C1388.51 648.848 1390.17 648.471 1391.69 647.76C1393.22 647.048 1394.57 646.018 1395.66 644.74C1397.32 642.823 1398.42 640.481 1398.82 637.978L1400.92 625.532C1401.41 622.812 1401.06 620.008 1399.92 617.49C1398.77 614.973 1396.89 612.86 1394.52 611.433Z" fill="black"/>
<path d="M1075.76 622.439V634.567C1075.75 634.992 1075.58 635.399 1075.28 635.699C1074.98 636 1074.57 636.17 1074.15 636.174H1069.19C1069.1 635.795 1069.02 635.416 1068.95 635.022L1066.35 620.908H1074.15C1074.56 620.904 1074.96 621.062 1075.26 621.347C1075.57 621.633 1075.74 622.025 1075.76 622.439Z" fill="#333333"/>
<path d="M1112.34 577.99L1108.79 579.809C1108.79 578.105 1109.37 576.451 1110.44 575.125C1110.85 575.06 1111.26 575.03 1111.68 575.034C1112.06 574.959 1112.47 575.038 1112.8 575.254C1113.13 575.469 1113.36 575.805 1113.45 576.189C1113.53 576.573 1113.47 576.976 1113.26 577.312C1113.06 577.648 1112.73 577.892 1112.34 577.99Z" fill="#FBB03B"/>
<path d="M1395.72 644.831C1394.63 646.111 1393.28 647.142 1391.75 647.853C1390.23 648.565 1388.57 648.94 1386.89 648.954H1085.76C1081.67 648.959 1077.72 647.495 1074.63 644.831H1395.72Z" fill="#333333"/>
<path d="M1120.19 669.814C1142.16 669.814 1159.97 652.052 1159.97 630.141C1159.97 608.229 1142.16 590.467 1120.19 590.467C1098.22 590.467 1080.41 608.229 1080.41 630.141C1080.41 652.052 1098.22 669.814 1120.19 669.814Z" fill="#1A1A1A"/>
<path d="M1120.19 665.372C1139.7 665.372 1155.51 649.598 1155.51 630.14C1155.51 610.682 1139.7 594.909 1120.19 594.909C1100.68 594.909 1084.86 610.682 1084.86 630.14C1084.86 649.598 1100.68 665.372 1120.19 665.372Z" fill="black"/>
<path d="M1155.45 627.957C1155.52 629.27 1155.52 630.586 1155.45 631.899C1155.36 632.956 1155.5 634.019 1155.84 635.021C1156.19 636.023 1156.75 636.941 1157.47 637.715C1158.2 638.489 1159.08 639.103 1160.06 639.517C1161.04 639.93 1162.1 640.134 1163.16 640.116C1163.59 640.116 1164.01 639.964 1164.35 639.687C1164.68 639.41 1164.9 639.025 1164.98 638.6C1166.97 628.209 1165.27 617.451 1160.17 608.177C1155.07 598.903 1146.88 591.693 1137.02 587.789C1127.17 583.885 1116.25 583.53 1106.16 586.786C1096.07 590.041 1087.43 596.704 1081.73 605.627C1081.43 606.098 1081.26 606.642 1081.24 607.201C1081.22 607.76 1081.35 608.314 1081.62 608.806C1081.89 609.297 1082.29 609.707 1082.77 609.993C1083.25 610.279 1083.8 610.431 1084.36 610.432H1086.35C1087.7 610.42 1089.02 610.12 1090.24 609.552C1091.45 608.984 1092.53 608.163 1093.41 607.143C1096.91 603.078 1101.29 599.865 1106.23 597.75C1111.17 595.635 1116.52 594.673 1121.89 594.939C1139.04 595.788 1154.42 610.948 1155.45 627.957Z" fill="#333333"/>
<path d="M1120.19 653.699C1133.23 653.699 1143.81 643.152 1143.81 630.14C1143.81 617.129 1133.23 606.582 1120.19 606.582C1107.14 606.582 1096.57 617.129 1096.57 630.14C1096.57 643.152 1107.14 653.699 1120.19 653.699Z" fill="white"/>
<path d="M1141.1 630.125C1141.1 635.248 1139.2 640.19 1135.77 644.006C1132.35 647.822 1127.63 650.244 1122.53 650.81C1117.42 651.376 1112.29 650.046 1108.1 647.074C1103.92 644.102 1100.98 639.696 1099.85 634.699C1098.72 629.702 1099.47 624.464 1101.96 619.987C1104.46 615.509 1108.52 612.106 1113.38 610.428C1118.23 608.749 1123.53 608.913 1128.27 610.889C1133.01 612.864 1136.85 616.512 1139.07 621.135C1140.41 623.943 1141.11 627.015 1141.1 630.125Z" fill="black"/>
<path d="M1136.91 638.372C1137.61 638.66 1138.34 638.903 1139.07 639.13C1137 643.421 1133.52 646.88 1129.22 648.939C1129 648.211 1128.75 647.499 1128.47 646.801C1126.94 643.146 1124.81 639.771 1122.16 636.811C1120.88 637.205 1119.51 637.205 1118.23 636.811C1115.59 639.771 1113.45 643.146 1111.92 646.801C1111.65 647.499 1111.39 648.211 1111.17 648.939C1106.87 646.88 1103.39 643.421 1101.31 639.13C1102.05 638.903 1102.83 638.66 1103.48 638.372C1107.16 636.863 1110.54 634.741 1113.5 632.096C1113.1 630.822 1113.1 629.459 1113.5 628.185C1110.54 625.54 1107.15 623.408 1103.48 621.878C1102.77 621.605 1102.05 621.348 1101.31 621.135C1103.39 616.841 1106.87 613.377 1111.17 611.312C1111.39 612.043 1111.64 612.762 1111.93 613.465C1113.46 617.121 1115.59 620.498 1118.23 623.455C1119.51 623.076 1120.88 623.076 1122.16 623.455C1124.81 620.498 1126.93 617.121 1128.46 613.465C1128.75 612.767 1128.99 612.055 1129.22 611.312C1133.52 613.378 1136.99 616.842 1139.07 621.135C1138.34 621.348 1137.55 621.605 1136.91 621.878C1133.24 623.404 1129.85 625.536 1126.89 628.185C1127.27 629.461 1127.27 630.82 1126.89 632.096C1129.85 634.744 1133.23 636.867 1136.91 638.372Z" fill="#333333"/>
<path d="M1124.58 630.125C1124.58 630.993 1124.33 631.841 1123.85 632.564C1123.37 633.286 1122.68 633.85 1121.88 634.184C1121.08 634.518 1120.19 634.607 1119.34 634.439C1118.49 634.272 1117.7 633.856 1117.09 633.244C1116.47 632.632 1116.05 631.851 1115.88 631.001C1115.71 630.151 1115.8 629.269 1116.13 628.467C1116.46 627.666 1117.02 626.981 1117.75 626.499C1118.47 626.017 1119.32 625.759 1120.19 625.759C1121.35 625.759 1122.47 626.219 1123.29 627.037C1124.11 627.856 1124.58 628.966 1124.58 630.125Z" fill="white"/>
<path d="M1121.8 630.125C1121.82 630.349 1121.8 630.574 1121.73 630.787C1121.65 630.999 1121.54 631.195 1121.39 631.361C1121.24 631.527 1121.05 631.66 1120.85 631.751C1120.64 631.841 1120.42 631.888 1120.2 631.888C1119.97 631.888 1119.75 631.841 1119.54 631.751C1119.34 631.66 1119.15 631.527 1119 631.361C1118.85 631.195 1118.74 630.999 1118.67 630.787C1118.6 630.574 1118.57 630.349 1118.59 630.125C1118.63 629.728 1118.82 629.359 1119.11 629.091C1119.41 628.823 1119.8 628.674 1120.2 628.674C1120.6 628.674 1120.98 628.823 1121.28 629.091C1121.57 629.359 1121.76 629.728 1121.8 630.125Z" fill="#333333"/>
<g style="mix-blend-mode:multiply" opacity="0.7">
<path d="M1136.91 621.878C1137.61 621.605 1138.34 621.348 1139.07 621.135C1136.99 616.842 1133.52 613.378 1129.22 611.312C1128.99 612.055 1128.75 612.828 1128.46 613.465C1132.12 615.271 1135.09 618.227 1136.91 621.878ZM1128.47 646.801C1128.75 647.499 1129 648.211 1129.22 648.939C1133.52 646.88 1137 643.421 1139.07 639.13C1138.34 638.903 1137.55 638.66 1136.91 638.372C1135.09 642.024 1132.13 644.983 1128.47 646.801ZM1101.31 621.135C1102.05 621.348 1102.83 621.605 1103.48 621.878C1105.29 618.221 1108.26 615.263 1111.93 613.465C1111.64 612.762 1111.39 612.043 1111.17 611.312C1106.87 613.377 1103.39 616.841 1101.31 621.135ZM1103.48 638.372C1102.77 638.66 1102.05 638.903 1101.31 639.13C1103.39 643.421 1106.87 646.88 1111.17 648.939C1111.39 648.211 1111.65 647.499 1111.92 646.801C1108.26 644.992 1105.29 642.03 1103.48 638.372Z" fill="#4D4D4D"/>
</g>
<path d="M1383 669.814C1404.96 669.814 1422.77 652.052 1422.77 630.141C1422.77 608.229 1404.96 590.467 1383 590.467C1361.03 590.467 1343.22 608.229 1343.22 630.141C1343.22 652.052 1361.03 669.814 1383 669.814Z" fill="#1A1A1A"/>
<path d="M1383 665.372C1402.51 665.372 1418.32 649.598 1418.32 630.14C1418.32 610.682 1402.51 594.909 1383 594.909C1363.49 594.909 1347.67 610.682 1347.67 630.14C1347.67 649.598 1363.49 665.372 1383 665.372Z" fill="black"/>
<path d="M1347.75 627.957C1347.67 629.27 1347.67 630.586 1347.75 631.899C1347.82 632.954 1347.68 634.013 1347.32 635.01C1346.97 636.006 1346.41 636.919 1345.69 637.691C1344.96 638.462 1344.08 639.076 1343.11 639.493C1342.14 639.911 1341.09 640.123 1340.03 640.116C1339.59 640.115 1339.18 639.963 1338.84 639.686C1338.51 639.409 1338.29 639.024 1338.22 638.6C1336.23 628.214 1337.94 617.464 1343.04 608.197C1348.15 598.931 1356.33 591.727 1366.18 587.824C1376.03 583.921 1386.94 583.564 1397.03 586.813C1407.11 590.062 1415.75 596.714 1421.45 605.627C1421.76 606.096 1421.93 606.639 1421.96 607.199C1421.98 607.759 1421.85 608.314 1421.58 608.807C1421.31 609.299 1420.92 609.71 1420.43 609.996C1419.95 610.283 1419.4 610.433 1418.84 610.432H1416.85C1415.5 610.422 1414.18 610.122 1412.96 609.555C1411.74 608.987 1410.66 608.164 1409.79 607.143C1406.29 603.08 1401.9 599.868 1396.97 597.753C1392.03 595.638 1386.67 594.676 1381.31 594.939C1364.15 595.788 1348.78 610.948 1347.75 627.957Z" fill="#333333"/>
<path d="M1383 653.699C1396.04 653.699 1406.62 643.152 1406.62 630.14C1406.62 617.129 1396.04 606.582 1383 606.582C1369.95 606.582 1359.38 617.129 1359.38 630.14C1359.38 643.152 1369.95 653.699 1383 653.699Z" fill="white"/>
<path d="M1362.1 630.125C1362.1 635.248 1364 640.19 1367.42 644.006C1370.85 647.822 1375.57 650.244 1380.67 650.81C1385.78 651.376 1390.91 650.046 1395.1 647.074C1399.28 644.102 1402.22 639.696 1403.35 634.699C1404.48 629.702 1403.73 624.464 1401.23 619.987C1398.74 615.509 1394.68 612.106 1389.82 610.428C1384.97 608.749 1379.67 608.913 1374.93 610.889C1370.19 612.864 1366.35 616.512 1364.13 621.135C1362.79 623.943 1362.09 627.015 1362.1 630.125Z" fill="black"/>
<path d="M1376.31 632.172C1372.79 635.341 1368.65 637.737 1364.15 639.206C1366.21 643.504 1369.69 646.969 1374 649.03C1375.47 644.539 1377.87 640.407 1381.05 636.902C1382.34 637.266 1383.7 637.266 1384.99 636.902C1388.16 640.407 1390.57 644.539 1392.04 649.03C1396.35 646.969 1399.82 643.504 1401.89 639.206C1397.39 637.737 1393.24 635.341 1389.73 632.172C1390.11 630.891 1390.11 629.527 1389.73 628.246C1393.24 625.072 1397.38 622.675 1401.89 621.211C1399.82 616.914 1396.35 613.449 1392.04 611.388C1390.56 615.876 1388.16 620.007 1384.99 623.516C1383.7 623.137 1382.34 623.137 1381.05 623.516C1377.88 620.007 1375.48 615.876 1374 611.388C1369.69 613.449 1366.21 616.914 1364.15 621.211C1368.65 622.675 1372.8 625.072 1376.31 628.246C1375.93 629.527 1375.93 630.891 1376.31 632.172Z" fill="#333333"/>
<g style="mix-blend-mode:multiply" opacity="0.7">
<g style="mix-blend-mode:multiply" opacity="0.7">
<path d="M1399.72 621.878C1400.43 621.605 1401.14 621.348 1401.87 621.135C1399.8 616.842 1396.33 613.378 1392.02 611.312C1391.8 612.055 1391.55 612.828 1391.26 613.465C1394.93 615.271 1397.9 618.227 1399.72 621.878ZM1391.28 646.801C1391.55 647.499 1391.81 648.211 1392.02 648.954C1396.33 646.884 1399.8 643.421 1401.87 639.13C1401.14 638.903 1400.43 638.66 1399.72 638.372C1397.9 642.027 1394.94 644.988 1391.28 646.801ZM1364.13 621.135C1364.86 621.348 1365.58 621.605 1366.29 621.878C1368.11 618.227 1371.08 615.271 1374.74 613.465C1374.45 612.762 1374.19 612.043 1373.98 611.312C1369.67 613.373 1366.2 616.838 1364.13 621.135ZM1366.29 638.372C1365.58 638.66 1364.86 638.903 1364.13 639.13C1366.2 643.424 1369.68 646.888 1373.98 648.954C1374.2 648.211 1374.45 647.438 1374.73 646.801C1371.07 644.988 1368.1 642.027 1366.29 638.372Z" fill="#4D4D4D"/>
</g>
</g>
<path d="M1378.62 630.125C1378.62 630.993 1378.87 631.842 1379.35 632.565C1379.83 633.288 1380.52 633.852 1381.32 634.185C1382.13 634.519 1383.01 634.607 1383.86 634.438C1384.72 634.27 1385.5 633.852 1386.12 633.238C1386.73 632.625 1387.15 631.843 1387.32 630.991C1387.49 630.14 1387.4 629.258 1387.07 628.457C1386.73 627.655 1386.17 626.971 1385.44 626.491C1384.72 626.011 1383.87 625.756 1383 625.759C1381.84 625.759 1380.72 626.219 1379.9 627.038C1379.08 627.857 1378.62 628.967 1378.62 630.125Z" fill="white"/>
<path d="M1381.4 630.125C1381.38 630.447 1381.46 630.767 1381.63 631.043C1381.79 631.319 1382.04 631.539 1382.33 631.675C1382.63 631.81 1382.95 631.854 1383.27 631.802C1383.59 631.749 1383.89 631.602 1384.12 631.38C1384.35 631.158 1384.52 630.87 1384.58 630.555C1384.65 630.24 1384.62 629.912 1384.5 629.613C1384.38 629.315 1384.17 629.059 1383.9 628.88C1383.64 628.701 1383.32 628.607 1383 628.609C1382.59 628.612 1382.19 628.771 1381.9 629.052C1381.6 629.334 1381.42 629.718 1381.4 630.125Z" fill="#333333"/>
<path d="M1369.98 580.476H1361.21C1360.84 580.476 1360.49 580.329 1360.23 580.068C1359.96 579.806 1359.82 579.451 1359.82 579.082C1359.82 578.714 1359.97 578.363 1360.23 578.105C1360.49 577.847 1360.85 577.702 1361.21 577.702H1369.98C1370.35 577.702 1370.7 577.847 1370.96 578.106C1371.22 578.365 1371.37 578.716 1371.37 579.082C1371.37 579.449 1371.22 579.801 1370.96 580.062C1370.7 580.324 1370.35 580.472 1369.98 580.476Z" fill="white" stroke="#231F20" stroke-width="0.5" stroke-miterlimit="10"/>
<path d="M1169.1 553.34H1156.65C1156.07 553.338 1155.5 553.45 1154.96 553.67C1154.42 553.89 1153.94 554.214 1153.53 554.622C1153.11 555.031 1152.79 555.516 1152.57 556.051C1152.34 556.585 1152.23 557.158 1152.23 557.737V565.407C1152.23 566.883 1152.71 568.318 1153.6 569.501L1164.48 584.115C1164.89 584.669 1165.43 585.119 1166.05 585.43C1166.66 585.74 1167.35 585.903 1168.04 585.904H1179.77L1169.1 553.34Z" fill="black"/>
<path d="M1353.84 558.328L1345.68 595.257C1343.42 605.521 1335.04 612.752 1325.27 612.752H1265.99C1264.44 612.748 1262.9 612.513 1261.43 612.055L1175.74 585.313C1171.78 583.973 1168.23 581.619 1165.46 578.485C1162.69 575.352 1160.79 571.548 1159.95 567.454L1157.91 558.358C1157.65 557.171 1157.68 555.937 1158.01 554.765C1158.33 553.428 1159.09 552.236 1160.17 551.373C1161.24 550.51 1162.57 550.024 1163.95 549.99H1347.87C1349.25 550.029 1350.57 550.517 1351.65 551.379C1352.72 552.242 1353.48 553.431 1353.81 554.765C1354.12 555.932 1354.13 557.156 1353.84 558.328Z" fill="white"/>
<path d="M1265.99 599.578C1265.59 599.578 1265.19 599.517 1264.82 599.396L1179.13 572.654C1176.79 571.926 1174.3 568.106 1172.86 565.513C1172.71 565.286 1172.62 565.023 1172.61 564.752C1172.59 564.481 1172.65 564.211 1172.78 563.97C1172.91 563.73 1173.1 563.529 1173.33 563.387C1173.56 563.245 1173.83 563.168 1174.1 563.164H1336.15C1336.64 563.187 1337.11 563.318 1337.55 563.548C1337.98 563.777 1338.35 564.1 1338.64 564.491C1338.93 564.883 1339.13 565.334 1339.23 565.813C1339.32 566.291 1339.31 566.784 1339.19 567.257L1333.66 592.225C1333.31 594.224 1332.29 596.044 1330.77 597.383C1329.24 598.721 1327.3 599.496 1325.27 599.578H1265.99Z" fill="black"/>
<path d="M1342.02 564.073L1340.16 572.654C1339.99 573.474 1339.54 574.209 1338.88 574.736C1338.23 575.263 1337.42 575.55 1336.58 575.549H1327.74C1323.96 575.55 1320.23 574.623 1316.89 572.851L1306.6 567.363C1306.2 567.151 1305.89 566.793 1305.73 566.362L1305.08 564.543C1304.98 564.267 1304.95 563.972 1305 563.682C1305.04 563.392 1305.15 563.116 1305.32 562.877C1305.49 562.638 1305.71 562.443 1305.97 562.308C1306.23 562.174 1306.52 562.103 1306.81 562.103H1340.42C1340.66 562.104 1340.9 562.16 1341.12 562.265C1341.34 562.37 1341.53 562.522 1341.69 562.711C1341.84 562.9 1341.95 563.12 1342.01 563.355C1342.06 563.591 1342.07 563.836 1342.02 564.073Z" fill="#A1BFCA"/>
<g style="mix-blend-mode:multiply" opacity="0.5">
<path d="M1353.16 553.34C1352.66 552.356 1351.9 551.527 1350.96 550.942C1350.02 550.357 1348.94 550.038 1347.84 550.02H1163.92C1162.81 550.038 1161.73 550.357 1160.8 550.942C1159.86 551.527 1159.1 552.356 1158.6 553.34H1353.16Z" fill="#A1BFCA"/>
</g>
<path d="M1125.68 561.708L1124.79 559.51C1123.58 556.399 1122.61 553.201 1121.88 549.944L1138.09 543.41C1138.09 543.41 1138.41 552.643 1125.68 561.708Z" fill="black"/>
<path d="M1211.56 481.709C1155.32 504.585 1133.94 537.543 1133.94 537.543L1121.46 541.621C1124.41 518.169 1160.15 492.109 1203.7 473.401H1209.96C1210.99 473.357 1212 473.683 1212.8 474.32C1213.61 474.956 1214.16 475.86 1214.35 476.868C1214.55 477.875 1214.37 478.919 1213.86 479.807C1213.34 480.696 1212.53 481.371 1211.56 481.709Z" fill="black"/>
<path d="M211.782 639.403C210.517 635.839 208.421 632.626 205.666 630.029C202.911 627.432 199.577 625.525 195.938 624.467C192.299 623.408 188.459 623.227 184.737 623.94C181.014 624.652 177.514 626.237 174.526 628.564C172.358 625.543 169.59 622.997 166.395 621.086C163.2 619.175 159.646 617.938 155.952 617.452C154.583 612.809 152.201 608.527 148.975 604.911C145.75 601.296 141.763 598.438 137.298 596.542C132.834 594.647 128.005 593.76 123.157 593.947C118.308 594.134 113.562 595.389 109.258 597.622C107.306 594.639 104.648 592.179 101.52 590.46C98.3908 588.742 94.8865 587.816 91.3148 587.765C87.7432 587.714 84.2137 588.54 81.037 590.169C77.8602 591.797 75.1336 594.18 73.0969 597.107C70.495 595.423 67.5322 594.374 64.4484 594.044C61.3645 593.714 58.246 594.113 55.3453 595.208C52.4447 596.303 49.8432 598.064 47.7515 600.348C45.6597 602.632 44.1364 605.376 43.3049 608.356H42.3929C36.2922 608.351 30.4358 610.746 26.0936 615.02C21.7514 619.294 19.2737 625.103 19.1977 631.187C18.6014 631.072 17.996 631.011 17.3889 631.005C15.0472 631.009 12.7878 631.867 11.0356 633.417C9.2834 634.966 8.15896 637.1 7.87366 639.418L211.782 639.403Z" fill="#009245"/>
<g style="mix-blend-mode:multiply" opacity="0.5">
<g style="mix-blend-mode:multiply" opacity="0.5">
<path d="M86.792 592.892C102.25 592.892 115.277 604.399 119.442 620.18C123.386 620.833 127.144 622.322 130.461 624.548C133.778 626.773 136.578 629.684 138.67 633.082C142.845 629.336 148.254 627.248 153.87 627.215C158.06 627.298 162.155 628.469 165.753 630.611C169.352 632.754 172.328 635.795 174.39 639.434H211.751C210.487 635.869 208.39 632.656 205.636 630.059C202.881 627.462 199.546 625.556 195.907 624.497C192.268 623.438 188.429 623.257 184.706 623.97C180.983 624.682 177.484 626.267 174.496 628.594C172.327 625.573 169.56 623.028 166.365 621.116C163.17 619.205 159.615 617.968 155.922 617.482C154.553 612.839 152.17 608.557 148.945 604.942C145.72 601.327 141.732 598.468 137.268 596.573C132.804 594.677 127.974 593.791 123.126 593.977C118.278 594.164 113.531 595.419 109.227 597.653C107.366 594.809 104.863 592.44 101.919 590.735C98.9741 589.031 95.6701 588.037 92.2715 587.836C88.8729 587.634 85.4741 588.229 82.3476 589.573C79.221 590.917 76.4537 592.973 74.2672 595.576C78.2061 593.812 82.4742 592.897 86.792 592.892Z" fill="#009245"/>
</g>
</g>
<path d="M159.478 373.83V468.126H156.089V455.027L142.743 444.749L156.317 373.83H159.478Z" fill="#CCCCCC"/>
<g style="mix-blend-mode:multiply" opacity="0.5">
<path d="M159.478 373.83H156.317V468.126H159.478V373.83Z" fill="#B3B3B3"/>
</g>
<path d="M75.9088 514.288L157.791 467.14L159.478 470.066L148.124 476.615L145.859 493.276L77.4896 517.017L75.9088 514.288Z" fill="#CCCCCC"/>
<g style="mix-blend-mode:multiply" opacity="0.5">
<path d="M157.789 467.144L75.9119 514.292L77.4927 517.022L159.37 469.875L157.789 467.144Z" fill="#B3B3B3"/>
</g>
<path d="M239.658 516.243L157.791 469.096L159.478 466.17L170.848 472.704L186.443 466.322L241.239 513.515L239.658 516.243Z" fill="#CCCCCC"/>
<g style="mix-blend-mode:multiply" opacity="0.5">
<path d="M159.369 466.359L157.788 469.09L239.666 516.238L241.247 513.507L159.369 466.359Z" fill="#B3B3B3"/>
</g>
<path d="M166.577 649.182H149.006L155.298 470.93H160.269L166.577 649.182Z" fill="#CCCCCC"/>
<g style="mix-blend-mode:multiply" opacity="0.5">
<path d="M166.577 649.182H157.791V470.93H160.269L166.577 649.182Z" fill="#B3B3B3"/>
</g>
<path d="M165.68 468.687C165.68 470.255 165.214 471.788 164.34 473.091C163.467 474.395 162.225 475.412 160.773 476.012C159.32 476.612 157.722 476.769 156.18 476.463C154.637 476.157 153.221 475.402 152.109 474.293C150.997 473.184 150.24 471.771 149.934 470.233C149.627 468.695 149.784 467.101 150.386 465.652C150.988 464.204 152.007 462.965 153.314 462.094C154.621 461.223 156.158 460.758 157.73 460.758C159.839 460.758 161.861 461.593 163.352 463.08C164.843 464.567 165.68 466.584 165.68 468.687Z" fill="white"/>
<g style="mix-blend-mode:multiply" opacity="0.5">
<path d="M160.862 461.364C161.394 462.444 161.67 463.632 161.667 464.836C161.673 466.144 161.352 467.434 160.735 468.589C160.118 469.744 159.224 470.728 158.132 471.453C157.04 472.179 155.785 472.623 154.479 472.746C153.172 472.869 151.856 472.667 150.647 472.158C151.212 473.31 152.047 474.308 153.083 475.067C154.119 475.826 155.323 476.323 156.594 476.516C157.865 476.708 159.163 476.591 160.378 476.174C161.593 475.756 162.689 475.051 163.571 474.119C164.453 473.187 165.095 472.055 165.443 470.821C165.791 469.587 165.833 468.288 165.567 467.034C165.3 465.78 164.733 464.609 163.914 463.622C163.094 462.634 162.047 461.86 160.862 461.364Z" fill="#A1BFCA"/>
</g>
<g style="mix-blend-mode:screen" opacity="0.5">
<path d="M157.457 464.654C157.46 464.999 157.36 465.338 157.17 465.627C156.979 465.915 156.708 466.141 156.388 466.275C156.069 466.41 155.717 466.446 155.377 466.381C155.037 466.315 154.724 466.151 154.478 465.907C154.232 465.664 154.064 465.354 153.996 465.015C153.927 464.676 153.961 464.325 154.093 464.006C154.224 463.686 154.448 463.413 154.736 463.221C155.024 463.028 155.362 462.926 155.709 462.926C156.17 462.926 156.612 463.107 156.94 463.431C157.267 463.755 157.453 464.194 157.457 464.654Z" fill="#58C662"/>
</g>
<path d="M219.306 261.48V394.236H214.533V375.816L195.73 361.339L214.837 261.48H219.306Z" fill="white"/>
<g style="mix-blend-mode:multiply" opacity="0.5">
<path d="M219.306 261.48H214.852V394.251H219.306V261.48Z" fill="#A1BFCA"/>
</g>
<path d="M101.627 459.242L216.919 392.871L219.306 396.995L203.3 406.197L200.123 429.68L103.862 463.092L101.627 459.242Z" fill="white"/>
<g style="mix-blend-mode:multiply" opacity="0.5">
<path d="M216.914 392.855L101.627 459.241L103.854 463.088L219.14 396.702L216.914 392.855Z" fill="#A1BFCA"/>
</g>
<path d="M332.196 462.001L216.919 395.615L219.306 391.492L235.296 400.694L257.275 391.719L334.43 458.15L332.196 462.001Z" fill="white"/>
<g style="mix-blend-mode:multiply" opacity="0.5">
<path d="M219.14 391.785L216.913 395.631L332.2 462.017L334.426 458.17L219.14 391.785Z" fill="#A1BFCA"/>
</g>
<path d="M229.292 649.182H204.531L213.423 398.208H220.415L229.292 649.182Z" fill="white"/>
<g style="mix-blend-mode:multiply" opacity="0.5">
<path d="M229.292 649.182H216.919V398.208H220.415L229.292 649.182Z" fill="#A1BFCA"/>
</g>
<path d="M224.839 402.935C229.214 398.571 229.214 391.497 224.839 387.134C220.464 382.77 213.371 382.77 208.997 387.134C204.622 391.497 204.622 398.571 208.997 402.935C213.371 407.298 220.464 407.298 224.839 402.935Z" fill="white"/>
<g style="mix-blend-mode:multiply" opacity="0.5">
<path d="M221.236 384.73C222.072 386.432 222.46 388.317 222.364 390.21C222.267 392.102 221.689 393.938 220.684 395.546C219.679 397.154 218.28 398.48 216.618 399.399C214.957 400.318 213.089 400.8 211.189 400.8C209.702 400.796 208.231 400.502 206.857 399.936C207.646 401.561 208.819 402.971 210.276 404.045C211.732 405.118 213.427 405.823 215.217 406.099C217.006 406.375 218.836 406.213 220.549 405.628C222.263 405.043 223.808 404.052 225.052 402.74C226.296 401.428 227.203 399.834 227.694 398.096C228.184 396.357 228.245 394.526 227.869 392.759C227.494 390.993 226.694 389.343 225.539 387.952C224.384 386.562 222.907 385.472 221.236 384.776V384.73Z" fill="#A1BFCA"/>
</g>
<g style="mix-blend-mode:screen" opacity="0.5">
<path d="M216.433 389.369C216.433 389.853 216.289 390.325 216.019 390.727C215.75 391.129 215.367 391.441 214.919 391.626C214.471 391.81 213.978 391.858 213.503 391.762C213.027 391.667 212.591 391.433 212.25 391.09C211.908 390.747 211.676 390.311 211.584 389.836C211.491 389.362 211.542 388.871 211.729 388.425C211.917 387.979 212.233 387.599 212.637 387.333C213.042 387.066 213.516 386.926 214.001 386.929C214.647 386.933 215.266 387.192 215.721 387.649C216.177 388.106 216.433 388.725 216.433 389.369Z" fill="#58C662"/>
</g>
<path d="M88.9049 359.156C100.229 359.156 109.41 349.999 109.41 338.705C109.41 327.41 100.229 318.254 88.9049 318.254C77.5804 318.254 68.4001 327.41 68.4001 338.705C68.4001 349.999 77.5804 359.156 88.9049 359.156Z" fill="white"/>
<path d="M93.5257 329.927C90.9498 331.603 89.0497 334.131 88.1601 337.067C87.3807 340.388 87.3807 343.843 88.1601 347.164C88.2817 346.785 88.3881 346.406 88.4945 346.027C90.8809 338.098 93.0545 331.807 93.0545 331.807C93.0545 331.807 91.3521 338.386 88.9657 346.315C88.8593 346.694 88.7377 347.073 88.6313 347.452C91.0338 345.758 92.8036 343.315 93.6625 340.509C94.4565 337.02 94.4096 333.394 93.5257 329.927Z" fill="#29ABE2"/>
<path d="M86.8528 341.282C85.6368 337.552 84.8616 334.99 84.8616 334.99C84.8616 334.99 85.7128 337.128 86.8984 340.387C86.9802 339.191 87.1891 338.007 87.5216 336.855C87.5216 336.734 87.5976 336.613 87.6432 336.491C86.7065 335.312 85.588 334.289 84.3296 333.459C83.4595 336.107 83.4118 338.955 84.1928 341.63C84.8488 343.356 85.8882 344.911 87.2328 346.178C86.9445 344.563 86.8173 342.923 86.8528 341.282Z" fill="#29ABE2"/>
<path d="M104.646 295.022C111.907 286.354 110.749 273.457 102.058 266.215C93.368 258.973 80.4369 260.129 73.1759 268.796C65.9148 277.464 67.0734 290.361 75.7637 297.603C84.454 304.845 97.3851 303.689 104.646 295.022Z" fill="white"/>
<path d="M97.7057 283.492V280.46H95.1825C95.0261 279.801 94.7644 279.171 94.4073 278.595L96.1857 276.822L94.0729 274.699L92.2793 276.473C91.6999 276.12 91.0692 275.859 90.4097 275.7V273.183H87.3697V275.7C86.7053 275.859 86.0696 276.12 85.4849 276.473L83.7065 274.699L81.5785 276.822L83.3569 278.595C83.006 279.174 82.7446 279.803 82.5817 280.46H80.1041V283.492H82.6273C82.7902 284.149 83.0516 284.777 83.4025 285.357L81.6241 287.145L83.7521 289.253L85.5305 287.479C86.1152 287.832 86.7509 288.092 87.4153 288.252V290.769H90.4553V288.192C91.1148 288.032 91.7455 287.771 92.3249 287.418L94.1185 289.192L96.2313 287.085L94.4529 285.296C94.81 284.72 95.0717 284.09 95.2281 283.431L97.7057 283.492ZM88.9049 285.432C88.2231 285.432 87.5566 285.231 86.9895 284.853C86.4224 284.476 85.9802 283.939 85.7186 283.311C85.457 282.684 85.3878 281.992 85.5197 281.325C85.6516 280.658 85.9787 280.045 86.4597 279.563C86.9408 279.081 87.5541 278.752 88.2225 278.618C88.8908 278.483 89.584 278.549 90.2148 278.807C90.8455 279.066 91.3854 279.504 91.7664 280.068C92.1473 280.632 92.3523 281.296 92.3553 281.976C92.3433 282.881 91.9745 283.744 91.3287 284.38C90.6829 285.016 89.8121 285.372 88.9049 285.372V285.432Z" fill="#29ABE2"/>
<path d="M88.9049 415.915C100.229 415.915 109.41 406.758 109.41 395.464C109.41 384.169 100.229 375.013 88.9049 375.013C77.5804 375.013 68.4001 384.169 68.4001 395.464C68.4001 406.758 77.5804 415.915 88.9049 415.915Z" fill="white"/>
<path d="M90.3488 401.573V404.241H88.0232V401.558C86.4136 401.339 84.8918 400.695 83.6152 399.693L84.8616 397.192C86.1109 398.256 87.6631 398.903 89.3 399.042C90.2424 399.042 90.82 398.693 90.82 398.056C90.82 395.979 84.3752 397.222 84.3752 392.902C84.4088 391.949 84.8014 391.043 85.4747 390.366C86.1481 389.689 87.0527 389.29 88.008 389.248V386.686H90.3336V389.233C91.6934 389.381 93.0026 389.831 94.164 390.552L92.9632 393.084C91.7607 392.356 90.4105 391.906 89.0112 391.765C88.236 391.765 87.7344 392.053 87.7344 392.599C87.7344 394.63 94.1792 393.478 94.1792 397.874C94.24 400.027 92.5528 401.27 90.3488 401.573Z" fill="#29ABE2"/>
<defs>
<linearGradient id="paint0_linear_112_2156" x1="1421.5" y1="-48.3725" x2="-387.845" y2="781.555" gradientUnits="userSpaceOnUse">
<stop stop-color="#1FBCFF"/>
<stop offset="1" stop-color="#4CCAFF" stop-opacity="0"/>
</linearGradient>
</defs>
</svg>
