<svg width="174" height="89" viewBox="0 0 174 89" fill="none" xmlns="http://www.w3.org/2000/svg">
<path d="M12.1452 53.8917C12.4709 56.4098 13.3283 58.3417 14.7176 59.6876C16.1285 61.0334 18.0171 61.7063 20.3832 61.7063C22.0981 61.7063 23.5741 61.3265 24.8115 60.5667C26.0705 59.807 27.0256 58.7107 27.6768 57.278L36.5334 59.8178C35.6651 61.9234 34.4387 63.7468 32.854 65.288C31.2694 66.8076 29.446 67.9689 27.3838 68.7721C25.3216 69.5752 23.1617 69.9768 20.9041 69.9768C17.3441 69.9768 14.1749 69.2062 11.3963 67.665C8.63951 66.1238 6.47963 63.9748 4.91671 61.2179C3.37549 58.4611 2.60488 55.3461 2.60488 51.8729C2.60488 48.0959 3.35378 44.7746 4.85159 41.9093C6.3711 39.0222 8.47671 36.7972 11.1684 35.2343C13.8601 33.6496 16.9317 32.8573 20.3832 32.8573C23.7695 32.8573 26.7109 33.6062 29.2072 35.104C31.7035 36.6018 33.6138 38.7291 34.9379 41.486C36.2838 44.2428 36.9567 47.4772 36.9567 51.1891C36.9567 51.7752 36.9133 52.6761 36.8265 53.8917H12.1452ZM20.7739 40.5417C16.1068 40.5417 13.3066 42.7993 12.3732 47.3144H27.8722C27.5683 44.9483 26.8411 43.2334 25.6906 42.1698C24.5618 41.0844 22.9229 40.5417 20.7739 40.5417ZM61.2711 69H52.4145L39.6506 33.8341H48.5072L56.8428 58.1898L65.1784 33.8341H74.035L61.2711 69Z" fill="black"/>
<path d="M89.4272 28.95H80.5706V21.1354H89.4272V28.95ZM89.4272 69H80.5706V33.8341H89.4272V69ZM127.256 39.2393C127.886 40.4115 128.277 41.6054 128.429 42.821C128.602 44.0149 128.689 45.5778 128.689 47.5098V69H120.94V64.702C119.377 66.5688 117.662 67.9146 115.795 68.7395C113.928 69.5644 111.649 69.9768 108.957 69.9768C106.526 69.9768 104.42 69.5101 102.64 68.5767C100.882 67.6216 99.5362 66.33 98.6028 64.702C97.6911 63.0739 97.2352 61.2722 97.2352 59.2968C97.2352 56.7354 97.8322 54.5755 99.0261 52.8172C100.22 51.0589 102.184 49.6805 104.92 48.6819C106.439 48.1176 108.295 47.64 110.488 47.2493C112.68 46.8368 115.838 46.3267 119.963 45.7189C119.789 44.0691 119.181 42.8644 118.139 42.1046C117.119 41.3232 115.578 40.9324 113.516 40.9324C112.018 40.9324 110.596 41.2798 109.25 41.9744C107.904 42.669 106.982 43.7544 106.483 45.2305L98.4725 42.6907C99.3842 39.6517 101.099 37.253 103.617 35.4948C106.135 33.7365 109.435 32.8573 113.516 32.8573C120.44 32.8573 125.021 34.9846 127.256 39.2393ZM118.986 58.32C119.55 57.1695 119.854 55.3569 119.898 52.8823C116.837 53.4033 114.59 53.8157 113.158 54.1196C111.725 54.4235 110.52 54.76 109.543 55.129C108.263 55.65 107.329 56.2361 106.743 56.8873C106.179 57.5168 105.896 58.2766 105.896 59.1666C105.896 60.3605 106.331 61.3048 107.199 61.9994C108.089 62.6723 109.304 63.0088 110.846 63.0088C112.344 63.0088 113.657 62.7483 114.786 62.2273C115.914 61.6846 116.815 61.0551 117.488 60.3388C118.183 59.6224 118.682 58.9495 118.986 58.32ZM156.366 32.7922C160.491 32.7922 163.562 33.845 165.581 35.9506C167.622 38.0562 168.881 40.2812 169.358 42.6256C169.858 44.97 170.107 47.1841 170.107 49.268V69H161.12V52.3939C161.12 50.6139 160.99 48.9424 160.73 47.3795C160.469 45.8166 159.775 44.3839 158.646 43.0815C157.539 41.779 155.845 41.1278 153.566 41.1278C151.526 41.1278 149.767 41.8333 148.291 43.2443C146.815 44.6335 146.077 47.271 146.077 51.1566V69H137.09V33.8341H144.97V37.4484C146.294 35.9723 147.911 34.8327 149.822 34.0295C151.732 33.2046 153.914 32.7922 156.366 32.7922Z" fill="#20D7FF"/>
</svg>
