<svg width="375" height="283" viewBox="0 0 375 283" fill="none" xmlns="http://www.w3.org/2000/svg">
<path d="M288.589 197.732H360.135C360.135 196.764 359.751 195.836 359.067 195.152C358.382 194.467 357.454 194.083 356.486 194.083H292.238C291.27 194.083 290.342 194.467 289.658 195.152C288.973 195.836 288.589 196.764 288.589 197.732Z" fill="#F7DD8C"/>
<path d="M266.205 206.767H337.745C337.745 205.801 337.361 204.874 336.678 204.191C335.994 203.508 335.068 203.124 334.102 203.124H269.847C268.881 203.124 267.955 203.508 267.271 204.191C266.588 204.874 266.205 205.801 266.205 206.767Z" fill="#F7DD8C"/>
<path d="M244.806 191.269H264.899C264.899 190.421 264.562 189.607 263.962 189.008C263.362 188.408 262.549 188.071 261.7 188.071H247.992C247.143 188.071 246.33 188.408 245.73 189.008C245.13 189.607 244.793 190.421 244.793 191.269H244.806Z" fill="#F7DD8C"/>
<path d="M288.589 190.179H310.027C310.028 189.899 309.973 189.622 309.867 189.363C309.76 189.104 309.604 188.868 309.406 188.67C309.208 188.472 308.973 188.314 308.715 188.207C308.456 188.1 308.179 188.044 307.899 188.044H290.724C290.443 188.044 290.165 188.098 289.906 188.205C289.646 188.312 289.411 188.469 289.212 188.668C289.014 188.866 288.857 189.102 288.75 189.361C288.643 189.621 288.588 189.899 288.589 190.179Z" fill="#F7DD8C"/>
<path d="M270.761 217.76H307.722C307.721 216.814 307.344 215.907 306.674 215.239C306.005 214.571 305.098 214.196 304.152 214.196H274.332C273.386 214.196 272.479 214.571 271.809 215.239C271.14 215.907 270.763 216.814 270.761 217.76Z" fill="#F7DD8C"/>
<path d="M310.027 224.203H349.116C349.116 223.337 348.772 222.507 348.16 221.895C347.548 221.283 346.718 220.939 345.852 220.939H313.317C312.451 220.939 311.621 221.283 311.009 221.895C310.397 222.507 310.053 223.337 310.053 224.203H310.027Z" fill="#F7DD8C"/>
<path d="M72.4156 194.971H121.982C121.981 193.699 121.474 192.481 120.575 191.582C119.675 190.684 118.456 190.179 117.184 190.179H77.2071C75.9363 190.179 74.7176 190.684 73.819 191.583C72.9204 192.481 72.4156 193.7 72.4156 194.971Z" fill="#F7DD8C"/>
<path d="M91.562 201.499H42.8831C41.5413 201.499 40.2544 202.032 39.3057 202.98C38.3569 203.929 37.8239 205.216 37.8239 206.558H96.6212C96.6212 205.216 96.0882 203.929 95.1394 202.98C94.1907 202.032 92.9038 201.499 91.562 201.499Z" fill="#F7DD8C"/>
<path d="M13.4224 196.635H47.3025C47.3025 195.558 46.8747 194.526 46.1132 193.764C45.3517 193.003 44.319 192.575 43.2421 192.575H17.4828C16.9493 192.574 16.4209 192.678 15.9279 192.882C15.4349 193.086 14.9869 193.385 14.6097 193.762C14.2325 194.139 13.9335 194.587 13.7297 195.08C13.526 195.573 13.4215 196.102 13.4224 196.635Z" fill="#F7DD8C"/>
<path d="M68.8577 215.423H135.339C135.339 214.275 134.883 213.174 134.071 212.362C133.259 211.551 132.158 211.095 131.01 211.095H73.2119C72.064 211.095 70.9632 211.551 70.1515 212.362C69.3398 213.174 68.8839 214.275 68.8839 215.423H68.8577Z" fill="#F7DD8C"/>
<path d="M81.1435 222.649H139.458C139.458 221.927 139.171 221.235 138.66 220.724C138.15 220.214 137.458 219.927 136.736 219.927H83.8591C83.1371 219.927 82.4448 220.214 81.9342 220.724C81.4237 221.235 81.137 221.927 81.137 222.649H81.1435Z" fill="#F7DD8C"/>
<path d="M12.2407 215.423H29.0568C29.0576 214.855 28.9465 214.292 28.7297 213.767C28.5129 213.242 28.1947 212.765 27.7933 212.363C27.3919 211.961 26.9153 211.642 26.3905 211.424C25.8658 211.207 25.3033 211.095 24.7353 211.095H16.5622C15.9942 211.095 15.4317 211.207 14.907 211.424C14.3822 211.642 13.9055 211.961 13.5042 212.363C13.1028 212.765 12.7846 213.242 12.5678 213.767C12.351 214.292 12.2399 214.855 12.2407 215.423Z" fill="#F7DD8C"/>
<path d="M187.073 123.189C156.914 123.189 132.466 98.7411 132.466 68.5828C132.466 38.4246 156.914 13.9764 187.073 13.9764C217.231 13.9764 241.679 38.4246 241.679 68.5828C241.679 98.7411 217.231 123.189 187.073 123.189Z" fill="white"/>
<path d="M314.871 169.401H325.178V230.509H314.871V169.401Z" fill="#C7D2D7"/>
<path d="M314.871 176.731L325.178 180.524V169.401H314.871V176.731Z" fill="#99A3B0"/>
<path d="M318.428 220.913C318.591 220.913 318.752 220.881 318.903 220.818C319.053 220.756 319.19 220.665 319.305 220.549C319.42 220.434 319.512 220.298 319.574 220.147C319.636 219.997 319.669 219.835 319.669 219.672V194.618C319.669 194.455 319.636 194.294 319.574 194.143C319.512 193.993 319.42 193.856 319.305 193.741C319.19 193.626 319.053 193.535 318.903 193.472C318.752 193.41 318.591 193.378 318.428 193.378C318.265 193.377 318.103 193.408 317.952 193.47C317.8 193.532 317.663 193.624 317.547 193.739C317.431 193.854 317.339 193.991 317.276 194.142C317.214 194.293 317.181 194.455 317.181 194.618V219.672C317.181 219.836 317.214 219.998 317.276 220.149C317.339 220.3 317.431 220.437 317.547 220.552C317.663 220.667 317.8 220.758 317.952 220.82C318.103 220.882 318.265 220.914 318.428 220.913Z" fill="white"/>
<path d="M318.428 190.179C318.758 190.177 319.073 190.045 319.306 189.812C319.538 189.578 319.669 189.262 319.669 188.932V185.198C319.669 184.869 319.538 184.554 319.305 184.321C319.073 184.089 318.757 183.958 318.428 183.958C318.265 183.957 318.103 183.989 317.952 184.051C317.8 184.113 317.663 184.204 317.547 184.319C317.431 184.434 317.339 184.571 317.276 184.722C317.214 184.873 317.181 185.035 317.181 185.198V188.932C317.181 189.263 317.313 189.58 317.547 189.814C317.78 190.048 318.098 190.179 318.428 190.179Z" fill="white"/>
<path d="M226.234 169.401H236.542V230.509H226.234V169.401Z" fill="#C7D2D7"/>
<path d="M226.24 176.731L236.542 180.524V169.401H226.24V176.731Z" fill="#99A3B0"/>
<path d="M229.792 220.913C230.121 220.913 230.437 220.782 230.671 220.55C230.905 220.317 231.037 220.002 231.038 219.672V194.618C231.037 194.289 230.905 193.973 230.671 193.741C230.437 193.508 230.121 193.378 229.792 193.378C229.463 193.378 229.147 193.508 228.915 193.741C228.682 193.974 228.551 194.289 228.551 194.618V219.672C228.551 220.001 228.682 220.317 228.915 220.549C229.147 220.782 229.463 220.913 229.792 220.913Z" fill="white"/>
<path d="M229.792 190.179C230.122 190.178 230.438 190.046 230.671 189.812C230.905 189.579 231.037 189.263 231.038 188.932V185.198C231.037 184.869 230.905 184.553 230.671 184.321C230.437 184.089 230.121 183.958 229.792 183.958C229.463 183.958 229.147 184.089 228.915 184.321C228.682 184.554 228.551 184.87 228.551 185.198V188.932C228.551 189.262 228.682 189.578 228.914 189.812C229.147 190.045 229.462 190.178 229.792 190.179Z" fill="white"/>
<path d="M137.604 169.401H147.911V230.509H137.604V169.401Z" fill="#C7D2D7"/>
<path d="M137.604 176.731L147.911 180.524V169.401H137.604V176.731Z" fill="#99A3B0"/>
<path d="M141.161 220.913C141.49 220.913 141.806 220.782 142.038 220.549C142.271 220.317 142.402 220.001 142.402 219.672V194.618C142.402 194.289 142.271 193.974 142.038 193.741C141.806 193.508 141.49 193.378 141.161 193.378C140.832 193.378 140.516 193.508 140.282 193.741C140.048 193.973 139.916 194.289 139.915 194.618V219.672C139.916 220.002 140.048 220.317 140.282 220.55C140.516 220.782 140.832 220.913 141.161 220.913Z" fill="white"/>
<path d="M141.161 190.179C141.491 190.178 141.806 190.045 142.039 189.812C142.271 189.578 142.402 189.262 142.402 188.932V185.198C142.402 184.87 142.271 184.554 142.038 184.321C141.806 184.089 141.49 183.958 141.161 183.958C140.832 183.958 140.516 184.089 140.282 184.321C140.048 184.553 139.916 184.869 139.915 185.198V188.932C139.916 189.263 140.048 189.579 140.282 189.812C140.515 190.046 140.831 190.178 141.161 190.179Z" fill="white"/>
<path d="M48.9736 169.401H59.2812V230.509H48.9736V169.401Z" fill="#C7D2D7"/>
<path d="M48.9736 176.731L59.2812 180.524V169.401H48.9736V176.731Z" fill="#99A3B0"/>
<path d="M52.5249 220.913C52.6883 220.914 52.8503 220.882 53.0015 220.82C53.1528 220.758 53.2903 220.667 53.4061 220.552C53.522 220.437 53.614 220.3 53.6767 220.149C53.7394 219.998 53.7717 219.836 53.7717 219.672V194.618C53.7717 194.455 53.7394 194.293 53.6767 194.142C53.614 193.991 53.522 193.854 53.4061 193.739C53.2903 193.624 53.1528 193.532 53.0015 193.47C52.8503 193.408 52.6883 193.377 52.5249 193.378C52.1959 193.378 51.8805 193.508 51.6478 193.741C51.4152 193.974 51.2846 194.289 51.2846 194.618V219.672C51.2846 220.001 51.4152 220.317 51.6478 220.549C51.8805 220.782 52.1959 220.913 52.5249 220.913Z" fill="white"/>
<path d="M52.5249 190.179C52.8556 190.179 53.1727 190.048 53.4065 189.814C53.6404 189.58 53.7717 189.263 53.7717 188.932V185.198C53.7717 185.035 53.7394 184.873 53.6767 184.722C53.614 184.571 53.522 184.434 53.4061 184.319C53.2903 184.204 53.1528 184.113 53.0015 184.051C52.8503 183.989 52.6883 183.957 52.5249 183.958C52.1959 183.958 51.8805 184.089 51.6478 184.321C51.4152 184.554 51.2846 184.869 51.2846 185.198V188.932C51.2846 189.262 51.415 189.578 51.6475 189.812C51.8799 190.045 52.1953 190.177 52.5249 190.179Z" fill="white"/>
<mask id="mask0_112_2267" style="mask-type:alpha" maskUnits="userSpaceOnUse" x="0" y="0" width="375" height="281">
<path d="M2.11594 202.367C-14.3672 98.6767 67.1605 0 187.073 0C306.985 0 388.512 98.6767 372.036 202.367C367.457 230.837 355.65 257.656 337.744 280.258H36.4073C18.5015 257.656 6.69458 230.837 2.11594 202.367Z" fill="#FBEED1"/>
</mask>
<g mask="url(#mask0_112_2267)">
<path d="M2.11594 202.367C-14.3672 98.6767 67.1605 0 187.073 0C306.985 0 388.512 98.6767 372.036 202.367C367.457 230.837 355.65 257.656 337.744 280.258H36.4073C18.5015 257.656 6.69458 230.837 2.11594 202.367Z" fill="url(#paint0_linear_112_2267)"/>
<path d="M-4.11181 183.958H378.257V230.509H-4.11181V183.958Z" fill="#FFFCCB"/>
<path d="M6.31348 114.892H24.2523C28.8262 114.893 33.2126 116.71 36.4465 119.945L49.3719 132.87C52.6058 136.105 56.9922 137.922 61.5661 137.923H70.17C72.4319 137.922 74.6718 138.366 76.7619 139.231C78.852 140.096 80.7512 141.364 82.3511 142.962L98.9517 159.557C100.552 161.159 102.453 162.431 104.546 163.298C106.638 164.165 108.881 164.61 111.146 164.609C113.727 164.609 116.274 165.188 118.602 166.303C120.929 167.418 122.977 169.041 124.594 171.052L134.953 183.958H-4.0921V114.892H6.31348Z" fill="#EFB96D"/>
<path d="M337.745 139.868H284.137C280.799 139.868 277.494 140.526 274.41 141.804C271.326 143.082 268.525 144.955 266.165 147.317C261.388 152.086 254.912 154.763 248.161 154.758H233.258C229.92 154.757 226.614 155.415 223.531 156.693C220.447 157.971 217.645 159.845 215.287 162.207L193.529 183.958H337.745V139.868Z" fill="#F7DD8C"/>
<path d="M334.787 139.535C330.292 143.651 324.418 145.933 318.324 145.933H298.688C292.224 145.937 286.026 148.506 281.454 153.074L273.281 161.241C268.708 165.813 262.507 168.382 256.041 168.382H252.333C246.065 168.383 240.038 170.798 235.504 175.126L226.24 183.958H378.257V133.17H351.251C345.161 133.161 339.287 135.431 334.787 139.535Z" fill="#EFB96D"/>
<path d="M-8.01551 161.221H382.167V169.401H-8.01551V161.221Z" fill="white"/>
<path d="M-8.01551 166.58H382.167V169.401H-8.01551V166.58Z" fill="#C7D2D7"/>
<path d="M-4.11181 230.509H378.257V240.523H-4.11181V230.509Z" fill="#03727E"/>
<path d="M-2.0489 240.523H376.207V280.258H-2.0489V240.523Z" fill="url(#paint1_linear_112_2267)"/>
</g>
<path d="M218.942 57.0937H294.823C293.629 54.2394 291.842 51.6711 289.582 49.5588C287.321 47.4466 284.637 45.8384 281.708 44.8407C278.841 43.9448 275.813 43.6892 272.836 44.0919C269.859 44.4946 267.007 45.5457 264.481 47.1712C261.335 49.2275 258.56 52.2499 254.839 52.7852C250.688 53.3793 246.875 50.6897 242.939 49.2275C234.864 46.2311 224.426 50.4286 218.942 57.0937Z" fill="#FDF7E7"/>
<path d="M271.871 87.4749H357.387L357.563 87.2986C354.809 81.789 346.884 77.9506 340.891 79.3867C338.822 79.8763 336.863 80.849 334.748 81.0709C330.544 81.5214 326.667 78.9689 323.194 76.5471C319.721 74.1252 315.797 71.625 311.6 72.1668C304.994 73.022 301.273 80.8686 294.817 82.4875C292.205 83.1403 289.405 82.6833 286.735 82.1741C284.065 81.665 281.317 81.1166 278.647 81.6323C275.977 82.148 272.367 84.8049 271.871 87.4749Z" fill="#FDF7E7"/>
<path d="M204.842 80.5486H250.583C248.377 75.6526 241.372 72.467 236.28 74.1838C233.904 74.9868 231.848 76.5861 229.439 77.2781C226.75 78.0614 223.858 77.6371 221.116 77.0431C218.374 76.449 215.619 75.6918 212.812 75.8028C210.005 75.9138 206.258 78.1267 204.842 80.5486Z" fill="#FDF7E7"/>
<path d="M106.661 33.1686H160.687C159.76 29.6305 154.922 26.9997 151.306 26.4513C147.689 25.903 144.027 26.8169 140.515 27.8483C137.003 28.8797 133.459 30.0287 129.803 30.0287C126.147 30.0287 122.472 28.7231 118.758 28.4228C115.043 28.1225 108.646 30.0287 106.661 33.1686Z" fill="#FDF7E7"/>
<path d="M25.3684 67.9954H122.537C120.298 62.9166 113.653 58.7518 108.136 59.4046C104.35 59.8354 100.727 61.9179 96.941 61.4478C91.8688 60.795 88.5656 56.0231 84.5379 52.857C76.4562 46.4792 63.681 47.1059 56.2653 54.254C53.2428 57.172 50.8666 61.1084 46.8911 62.4793C43.3203 63.713 39.4362 62.5184 35.6695 62.2377C31.9029 61.957 26.2889 64.3332 25.3684 67.9954Z" fill="#FDF7E7"/>
<path d="M16.6015 103.527H84.8644C80.4841 97.1623 70.8619 94.6947 63.6746 97.5278C60.2801 98.8334 57.1923 101.301 53.5432 101.445C49.757 101.601 46.3951 99.2512 42.9092 97.7563C34.4554 94.1333 23.5995 97.5344 16.6015 103.527Z" fill="#FDF7E7"/>
<path d="M205.246 236.998H187.876C186.164 236.997 184.488 236.508 183.045 235.588L182.059 234.935H204.006C204.499 235.572 204.915 236.264 205.246 236.998Z" fill="#8C404C"/>
<path d="M170.648 234.954H182.059V236.998H170.479L170.537 236.084C170.583 235.705 170.616 235.326 170.648 234.954Z" fill="#8C404C"/>
<path d="M172.992 223.289L173.703 221.095H185.258L191.283 227.336C192.347 228.431 193.634 229.284 195.056 229.836L199.463 231.54C201.272 232.234 202.854 233.416 204.032 234.954H170.674C170.987 230.989 171.765 227.073 172.992 223.289Z" fill="#8C404C"/>
<path d="M172.992 223.289L173.703 221.095H185.258L188.261 224.203H172.705C172.803 223.909 172.887 223.596 172.992 223.289Z" fill="#8C404C"/>
<path d="M206.591 176.255L188.966 221.089H170.479L173.978 203.248C175.491 195.559 178.13 188.135 181.811 181.216L184.422 176.255H206.591Z" fill="#21255C"/>
<path d="M197.047 176.255H197.805L184.566 213.464C184.542 213.534 184.498 213.594 184.438 213.636C184.378 213.678 184.306 213.7 184.233 213.699H184.115C184.071 213.685 184.03 213.661 183.995 213.631C183.96 213.6 183.932 213.562 183.912 213.52C183.892 213.478 183.88 213.432 183.878 213.386C183.876 213.339 183.884 213.293 183.9 213.249L197.047 176.255Z" fill="#454F6B"/>
<path d="M247.698 93.9413L244.152 92.9739C243.97 92.9243 243.775 92.949 243.612 93.0426C243.448 93.1362 243.328 93.2911 243.278 93.4731L236.763 117.354L241.675 118.695L248.19 94.8133C248.24 94.6312 248.215 94.4369 248.122 94.273C248.028 94.1092 247.873 93.9892 247.691 93.9396L247.698 93.9413Z" fill="#495375"/>
<path d="M241.672 118.691L246.588 120.036L250.825 104.493C251.108 103.455 251.09 102.359 250.775 101.33C250.459 100.302 249.859 99.3839 249.043 98.6833L247.495 97.3777L241.672 118.691Z" fill="#495375"/>
<path d="M248.429 98.1544L245.061 110.518C244.847 111.289 244.856 112.105 245.087 112.871C245.318 113.638 245.761 114.322 246.366 114.846L247.672 115.976L246.568 120.036L241.653 118.691L247.509 97.358L248.429 98.1544Z" fill="#21255C"/>
<path d="M174.996 246.855L165.204 256.647C163.967 257.887 162.498 258.872 160.881 259.544C159.263 260.216 157.529 260.562 155.778 260.564H99.5261V230.535H153.708L174.996 246.855Z" fill="#21255C"/>
<path d="M260.14 209.965C260.14 209.965 257.908 162.311 241.725 130.017L224.556 125.618L227.35 114.892L244.48 116.851C246.257 117.051 247.965 117.66 249.469 118.629C250.972 119.599 252.232 120.902 253.149 122.439C261.322 136.095 283.83 175.641 292.225 210.566C292.801 212.958 292.836 215.449 292.328 217.857C291.82 220.264 290.781 222.528 289.288 224.484L280.312 236.234C278.235 238.958 275.557 241.165 272.488 242.685C269.418 244.204 266.039 244.995 262.614 244.994H233.8L248.076 209.959L260.14 209.965Z" fill="white"/>
<path d="M291.181 221.298C290.665 222.43 290.023 223.501 289.268 224.49L280.292 236.24C278.215 238.964 275.538 241.172 272.468 242.691C269.399 244.211 266.02 245.001 262.595 245.001H233.8L245.1 217.277H285.299L291.181 221.298Z" fill="#21255C"/>
<path d="M287.629 203.601L286.853 200.5C286.547 199.288 285.954 198.167 285.123 197.233C284.292 196.299 283.249 195.579 282.081 195.134C280.96 194.705 279.954 194.024 279.14 193.143C278.326 192.263 277.726 191.206 277.387 190.055C274.273 179.519 265.859 154.06 252.731 130.174C252.029 128.899 251.664 127.466 251.67 126.011C251.677 124.555 252.056 123.126 252.77 121.857C252.907 122.047 253.044 122.236 253.168 122.438C261.113 135.723 282.596 173.507 291.52 207.707C290.574 207.412 289.72 206.88 289.039 206.161C288.358 205.442 287.873 204.561 287.629 203.601Z" fill="#93E3EF"/>
<path d="M224.556 125.618L226.012 120.036L244.29 123.783C257.908 145.698 268.444 186.367 269.521 209.952H260.14C260.14 209.952 257.908 162.298 241.725 130.004L224.556 125.618Z" fill="#D1F4F5"/>
<path d="M143.551 178.096H170.701C172.605 178.097 174.46 178.698 176.004 179.814C177.547 180.929 178.7 182.503 179.298 184.311H134.953C135.552 182.503 136.704 180.929 138.248 179.814C139.791 178.698 141.646 178.097 143.551 178.096Z" fill="#6CA8BC"/>
<path d="M241.274 215.508L233.708 235.176C233.501 235.712 233.136 236.173 232.662 236.498C232.188 236.823 231.626 236.997 231.052 236.998H171.98C171.524 236.997 171.076 236.886 170.671 236.676C170.267 236.466 169.919 236.162 169.656 235.79L147.631 204.573C147.359 204.19 147.187 203.746 147.13 203.28C147.073 202.813 147.133 202.34 147.304 201.903L149.772 195.545C149.98 195.011 150.345 194.553 150.817 194.229C151.29 193.906 151.849 193.732 152.422 193.73H181.935C182.414 193.736 182.887 193.62 183.309 193.393C183.731 193.167 184.089 192.838 184.35 192.436C184.611 192.034 184.765 191.572 184.8 191.094C184.834 190.616 184.747 190.138 184.546 189.703L182.843 185.975C182.614 185.476 182.246 185.053 181.783 184.758C181.319 184.462 180.781 184.307 180.231 184.31H133.086C132.547 184.312 132.018 184.467 131.563 184.757C131.108 185.047 130.744 185.461 130.514 185.949L122.25 203.529C122.028 204.003 121.942 204.529 121.999 205.05C122.057 205.57 122.256 206.065 122.576 206.479L156.907 250.902C157.171 251.247 157.511 251.527 157.9 251.719C158.29 251.912 158.718 252.012 159.153 252.012H235.399C235.976 252.012 236.539 251.837 237.014 251.509C237.488 251.181 237.852 250.717 238.056 250.178L250.459 217.538C250.621 217.107 250.677 216.644 250.621 216.187C250.565 215.73 250.4 215.293 250.139 214.914C249.878 214.535 249.529 214.225 249.122 214.01C248.715 213.795 248.263 213.682 247.802 213.68H243.925C243.35 213.682 242.79 213.858 242.317 214.184C241.844 214.51 241.481 214.972 241.274 215.508Z" fill="white"/>
<path d="M165.635 245.451H232.461C232.929 245.45 233.388 245.333 233.8 245.112L236.901 251.594C236.45 251.877 235.93 252.028 235.399 252.032H159.152C158.682 252.028 158.22 251.907 157.808 251.679L164.133 245.021C164.584 245.301 165.104 245.45 165.635 245.451Z" fill="#9EE6E0"/>
<path d="M235.105 243.61L246.621 213.686H247.802C248.263 213.688 248.715 213.802 249.122 214.017C249.529 214.232 249.878 214.542 250.139 214.921C250.4 215.3 250.565 215.737 250.621 216.193C250.677 216.65 250.621 217.114 250.459 217.544L238.056 250.184C237.834 250.764 237.428 251.254 236.901 251.581L233.8 245.099C234.399 244.775 234.863 244.247 235.105 243.61Z" fill="#E7FAF9"/>
<path d="M133.086 184.31H180.231C180.781 184.307 181.319 184.462 181.782 184.758C182.246 185.053 182.614 185.476 182.843 185.975L183.952 188.397H141.827C141.26 188.4 140.706 188.57 140.235 188.887L131.911 184.585C132.278 184.408 132.679 184.314 133.086 184.31Z" fill="#93E3EF"/>
<path d="M122.25 203.529L130.514 185.949C130.796 185.347 131.281 184.863 131.885 184.585L140.208 188.887C139.714 189.222 139.338 189.704 139.131 190.264L134.993 201.577C134.865 201.935 134.808 202.314 134.823 202.693L121.989 204.808C121.976 204.367 122.065 203.929 122.25 203.529Z" fill="#E7FAF9"/>
<path d="M156.907 250.902L122.576 206.479C122.207 206 122.001 205.414 121.989 204.808L134.823 202.693C134.848 203.228 135.024 203.744 135.332 204.182L163.298 244.218C163.519 244.532 163.801 244.798 164.127 245.001L157.801 251.659C157.453 251.473 157.148 251.215 156.907 250.902Z" fill="#D1F4F5"/>
<path d="M141.677 193.73H152.416C151.843 193.732 151.284 193.905 150.811 194.229C150.338 194.553 149.974 195.011 149.765 195.545L147.298 201.903C147.126 202.34 147.066 202.813 147.123 203.28C147.18 203.746 147.352 204.19 147.624 204.573L149.021 206.532L145.313 204.162C143.626 203.082 142.351 201.466 141.692 199.575C141.033 197.683 141.027 195.625 141.677 193.73Z" fill="#93E3EF"/>
<path d="M169.656 235.79C169.919 236.162 170.267 236.466 170.671 236.676C171.076 236.887 171.524 236.997 171.98 236.998H231.051C231.626 236.997 232.187 236.823 232.662 236.498C233.136 236.173 233.501 235.712 233.708 235.177L232.821 237.481C232.51 238.285 231.963 238.977 231.253 239.465C230.542 239.953 229.701 240.215 228.839 240.216H174.989C174.306 240.216 173.633 240.051 173.026 239.737C172.42 239.422 171.897 238.966 171.503 238.408L169.656 235.79Z" fill="#93E3EF"/>
<path d="M250.126 218.426L248.638 222.342H243.298L244.806 218.426H250.126Z" fill="#93E3EF"/>
<path d="M240.151 218.426H244.806L243.298 222.342H238.644L240.151 218.426Z" fill="#D1F4F5"/>
<path d="M239.381 214.163L235.432 217.76C234.967 217.373 234.638 216.847 234.494 216.26C234.349 215.672 234.397 215.054 234.629 214.496L237.39 207.818C238.398 205.387 240.303 203.437 242.71 202.373L245.974 209.965L239.381 214.163Z" fill="#D1F4F5"/>
<path d="M275.324 210.494L245.948 209.965L242.684 202.373C244.203 201.7 245.864 201.409 247.522 201.525L274.802 203.405C276.474 203.527 278.088 204.068 279.495 204.978L275.324 210.494Z" fill="#E7FAF9"/>
<path d="M239.381 214.163L245.948 209.965L275.324 210.494L285.299 217.277C285.037 217.634 284.693 217.925 284.298 218.124C283.902 218.324 283.464 218.427 283.021 218.426H237.26C236.592 218.432 235.944 218.2 235.432 217.773L239.381 214.163Z" fill="#E7FAF9"/>
<path d="M275.324 210.494L279.495 204.978C281.107 206.002 282.39 207.468 283.19 209.202L285.606 214.424C285.823 214.887 285.91 215.4 285.857 215.908C285.804 216.417 285.613 216.901 285.305 217.309L280.801 214.196L275.324 210.494Z" fill="#D1F4F5"/>
<path d="M280.801 214.163L279.319 210.958C278.892 210.03 278.223 209.234 277.382 208.654C276.542 208.073 275.56 207.731 274.541 207.661L247.26 205.774H246.843C245.663 205.772 244.509 206.122 243.529 206.779C242.548 207.436 241.786 208.37 241.34 209.463L239.381 214.176L280.801 214.163Z" fill="white"/>
<path d="M273.607 266.432C265.333 266.432 258.626 259.725 258.626 251.451C258.626 243.177 265.333 236.469 273.607 236.469C281.881 236.469 288.589 243.177 288.589 251.451C288.589 259.725 281.881 266.432 273.607 266.432Z" fill="#495375"/>
<path d="M254.252 243.095L256.693 238.871L268.868 243.245L271.172 230.509H276.049L278.347 243.245L290.528 238.871L292.969 243.095L283.086 251.451L292.969 259.813L290.528 264.043L278.347 259.663L276.049 272.399H271.172L268.868 259.663L256.693 264.043L254.252 259.813L264.135 251.451L254.252 243.095Z" fill="#99A3B0"/>
<path d="M261.216 253.227C260.178 246.802 264.544 240.752 270.969 239.714C277.394 238.675 283.444 243.042 284.482 249.466C285.52 255.891 281.154 261.941 274.729 262.979C268.305 264.018 262.255 259.651 261.216 253.227Z" fill="#C7D2D7"/>
<path d="M273.607 259.121C269.371 259.121 265.937 255.687 265.937 251.451C265.937 247.214 269.371 243.78 273.607 243.78C277.843 243.78 281.278 247.214 281.278 251.451C281.278 255.687 277.843 259.121 273.607 259.121Z" fill="white"/>
<path d="M273.607 257.907C270.042 257.907 267.151 255.016 267.151 251.451C267.151 247.885 270.042 244.995 273.607 244.995C277.173 244.995 280.063 247.885 280.063 251.451C280.063 255.016 277.173 257.907 273.607 257.907Z" fill="#C7D2D7"/>
<path d="M273.62 222.649C279.319 222.648 284.889 224.337 289.628 227.502C294.366 230.667 298.059 235.166 300.241 240.43C302.422 245.694 302.993 251.487 301.882 257.076C300.77 262.665 298.026 267.798 293.997 271.827C289.968 275.857 284.834 278.601 279.245 279.712C273.657 280.823 267.864 280.252 262.6 278.071C257.335 275.89 252.836 272.196 249.671 267.458C246.506 262.719 244.818 257.149 244.819 251.451C244.819 243.812 247.853 236.486 253.255 231.085C258.656 225.684 265.982 222.649 273.62 222.649ZM273.62 273.861C278.053 273.862 282.387 272.549 286.073 270.087C289.759 267.626 292.632 264.126 294.33 260.031C296.027 255.936 296.472 251.43 295.608 247.083C294.744 242.735 292.61 238.741 289.476 235.606C286.342 232.472 282.349 230.337 278.001 229.471C273.654 228.606 269.148 229.049 265.052 230.745C260.957 232.441 257.457 235.314 254.994 238.999C252.531 242.685 251.216 247.018 251.216 251.451C251.223 257.391 253.586 263.086 257.786 267.287C261.985 271.488 267.68 273.852 273.62 273.861Z" fill="#222222"/>
<path d="M273.62 229.047C278.053 229.045 282.387 230.359 286.073 232.821C289.76 235.283 292.633 238.783 294.33 242.878C296.027 246.973 296.472 251.48 295.607 255.828C294.743 260.175 292.608 264.169 289.473 267.304C286.339 270.438 282.345 272.573 277.997 273.437C273.65 274.302 269.143 273.857 265.048 272.16C260.952 270.463 257.452 267.59 254.99 263.904C252.528 260.217 251.215 255.884 251.216 251.451C251.225 245.511 253.588 239.818 257.788 235.618C261.988 231.418 267.681 229.055 273.62 229.047ZM273.62 271.733C277.632 271.734 281.554 270.546 284.89 268.318C288.227 266.09 290.827 262.923 292.363 259.217C293.9 255.511 294.302 251.433 293.52 247.498C292.738 243.563 290.807 239.948 287.971 237.111C285.135 234.274 281.521 232.342 277.586 231.558C273.652 230.775 269.573 231.177 265.867 232.711C262.16 234.246 258.992 236.846 256.763 240.182C254.534 243.517 253.344 247.439 253.344 251.451C253.351 256.827 255.49 261.98 259.29 265.782C263.091 269.584 268.244 271.724 273.62 271.733Z" fill="#C7D2D7"/>
<path d="M273.62 231.175C277.632 231.174 281.555 232.362 284.891 234.59C288.228 236.818 290.828 239.986 292.364 243.692C293.9 247.399 294.302 251.477 293.52 255.412C292.737 259.347 290.806 262.962 287.969 265.799C285.132 268.636 281.517 270.568 277.582 271.35C273.647 272.133 269.569 271.73 265.862 270.194C262.156 268.658 258.988 266.058 256.76 262.721C254.532 259.385 253.343 255.463 253.345 251.451C253.353 246.076 255.492 240.924 259.293 237.123C263.093 233.322 268.246 231.183 273.62 231.175ZM273.62 269.605C277.21 269.606 280.719 268.543 283.705 266.55C286.69 264.556 289.017 261.722 290.391 258.407C291.766 255.091 292.126 251.441 291.427 247.921C290.727 244.4 288.999 241.166 286.462 238.627C283.924 236.088 280.69 234.359 277.17 233.659C273.649 232.958 270 233.317 266.684 234.69C263.367 236.064 260.532 238.39 258.538 241.374C256.544 244.359 255.479 247.868 255.479 251.457C255.484 256.268 257.397 260.879 260.798 264.282C264.199 267.684 268.81 269.598 273.62 269.605Z" fill="#222222"/>
<path d="M115.977 266.432C107.702 266.432 100.995 259.725 100.995 251.451C100.995 243.177 107.702 236.469 115.977 236.469C124.251 236.469 130.958 243.177 130.958 251.451C130.958 259.725 124.251 266.432 115.977 266.432Z" fill="#495375"/>
<path d="M96.6211 243.095L99.0626 238.871L111.237 243.245L113.535 230.509H118.418L120.716 243.245L132.897 238.871L135.339 243.095L125.455 251.451L135.339 259.813L132.897 264.043L120.716 259.663L118.418 272.399H113.535L111.237 259.663L99.0626 264.043L96.6211 259.813L106.498 251.451L96.6211 243.095Z" fill="#99A3B0"/>
<path d="M111.537 262.338C105.531 259.881 102.652 253.021 105.108 247.014C107.565 241.007 114.425 238.129 120.432 240.585C126.439 243.041 129.317 249.902 126.861 255.909C124.405 261.916 117.544 264.794 111.537 262.338Z" fill="#C7D2D7"/>
<path d="M115.977 259.121C111.74 259.121 108.306 255.687 108.306 251.451C108.306 247.214 111.74 243.78 115.977 243.78C120.213 243.78 123.647 247.214 123.647 251.451C123.647 255.687 120.213 259.121 115.977 259.121Z" fill="white"/>
<path d="M115.977 257.907C112.411 257.907 109.52 255.016 109.52 251.451C109.52 247.885 112.411 244.995 115.977 244.995C119.542 244.995 122.433 247.885 122.433 251.451C122.433 255.016 119.542 257.907 115.977 257.907Z" fill="#C7D2D7"/>
<path d="M115.977 222.649C121.675 222.649 127.245 224.339 131.982 227.505C136.72 230.67 140.412 235.17 142.592 240.434C144.773 245.699 145.343 251.491 144.231 257.08C143.118 262.668 140.374 267.801 136.345 271.83C132.315 275.858 127.181 278.602 121.593 279.712C116.004 280.823 110.212 280.252 104.948 278.07C99.684 275.889 95.1852 272.196 92.0206 267.457C88.8559 262.719 87.1675 257.149 87.1688 251.451C87.1688 247.668 87.9139 243.922 89.3617 240.427C90.8096 236.933 92.9316 233.757 95.6068 231.083C98.2819 228.408 101.458 226.287 104.953 224.84C108.448 223.393 112.194 222.648 115.977 222.649ZM115.977 273.861C120.409 273.861 124.742 272.547 128.427 270.084C132.113 267.622 134.985 264.122 136.681 260.027C138.377 255.932 138.821 251.426 137.957 247.079C137.092 242.731 134.957 238.738 131.823 235.604C128.689 232.47 124.696 230.335 120.349 229.471C116.002 228.606 111.495 229.05 107.401 230.746C103.306 232.442 99.8055 235.315 97.343 239C94.8805 242.685 93.5661 247.018 93.5661 251.451C93.5731 257.392 95.9364 263.088 100.138 267.29C104.339 271.491 110.035 273.854 115.977 273.861Z" fill="#222222"/>
<path d="M115.977 229.047C120.409 229.047 124.742 230.361 128.428 232.824C132.113 235.287 134.986 238.787 136.682 242.883C138.378 246.978 138.821 251.484 137.956 255.832C137.091 260.179 134.956 264.172 131.821 267.306C128.686 270.44 124.692 272.574 120.345 273.438C115.997 274.302 111.491 273.857 107.396 272.16C103.301 270.463 99.8015 267.589 97.3398 263.903C94.8781 260.217 93.5648 255.883 93.5661 251.451C93.5747 245.51 95.9388 239.816 100.14 235.616C104.341 231.416 110.036 229.054 115.977 229.047ZM115.977 271.733C119.988 271.734 123.91 270.546 127.247 268.318C130.583 266.09 133.184 262.923 134.72 259.217C136.256 255.511 136.658 251.433 135.877 247.498C135.095 243.563 133.164 239.948 130.327 237.111C127.491 234.274 123.877 232.342 119.942 231.558C116.008 230.775 111.929 231.177 108.223 232.711C104.516 234.246 101.348 236.846 99.1194 240.182C96.8904 243.517 95.7007 247.439 95.7007 251.451C95.7059 256.827 97.8436 261.982 101.645 265.784C105.446 269.587 110.6 271.726 115.977 271.733Z" fill="#C7D2D7"/>
<path d="M115.977 231.175C119.989 231.174 123.911 232.362 127.247 234.59C130.584 236.818 133.184 239.986 134.72 243.692C136.256 247.399 136.658 251.477 135.876 255.412C135.094 259.347 133.162 262.962 130.325 265.799C127.488 268.636 123.873 270.568 119.938 271.35C116.003 272.133 111.925 271.73 108.218 270.194C104.512 268.658 101.344 266.058 99.1162 262.721C96.8881 259.385 95.6995 255.463 95.7007 251.451C95.7077 246.075 97.8461 240.922 101.647 237.121C105.448 233.32 110.601 231.182 115.977 231.175ZM115.977 269.598C119.566 269.598 123.075 268.534 126.059 266.54C129.043 264.546 131.369 261.712 132.743 258.395C134.116 255.079 134.476 251.431 133.776 247.91C133.075 244.39 131.347 241.156 128.809 238.618C126.271 236.08 123.037 234.352 119.517 233.652C115.997 232.951 112.348 233.311 109.032 234.684C105.716 236.058 102.881 238.384 100.887 241.368C98.8932 244.353 97.8288 247.861 97.8288 251.451C97.8323 256.263 99.7452 260.878 103.148 264.282C106.55 267.685 111.164 269.6 115.977 269.605V269.598Z" fill="#222222"/>
<path d="M115.977 234.954C112.112 234.954 108.369 236.31 105.402 238.787C102.435 241.263 100.431 244.703 99.7416 248.506H81.1434C81.8808 239.776 85.8701 231.64 92.3212 225.711C98.7723 219.782 107.215 216.491 115.977 216.491C124.739 216.491 133.181 219.782 139.632 225.711C146.083 231.64 150.072 239.776 150.81 248.506H132.212C131.522 244.703 129.519 241.263 126.551 238.787C123.584 236.31 119.842 234.954 115.977 234.954Z" fill="#C7D2D7"/>
<path d="M105.786 224.621C105.991 224.621 106.194 224.586 106.387 224.516C107.648 224.067 108.939 223.71 110.252 223.446C110.69 223.328 111.067 223.048 111.306 222.662C111.545 222.275 111.628 221.813 111.537 221.368C111.446 220.923 111.189 220.529 110.818 220.268C110.447 220.006 109.99 219.896 109.54 219.96C108.067 220.261 106.616 220.665 105.199 221.167C104.801 221.305 104.465 221.58 104.251 221.942C104.037 222.305 103.959 222.731 104.03 223.146C104.102 223.561 104.318 223.937 104.641 224.207C104.964 224.477 105.372 224.624 105.793 224.621H105.786Z" fill="white"/>
<path d="M88.3959 240.523C88.7351 240.523 89.0672 240.426 89.353 240.243C89.6387 240.06 89.8661 239.8 90.0083 239.492C92.4053 234.295 96.3049 229.936 101.204 226.977C101.607 226.733 101.897 226.339 102.01 225.881C102.122 225.423 102.048 224.939 101.804 224.536C101.56 224.133 101.166 223.843 100.708 223.73C100.25 223.617 99.7663 223.691 99.3629 223.935C93.8581 227.259 89.4764 232.157 86.7835 237.997C86.6571 238.267 86.6012 238.566 86.6208 238.864C86.6405 239.162 86.7351 239.451 86.8959 239.703C87.0566 239.955 87.2784 240.162 87.5406 240.305C87.8029 240.449 88.097 240.524 88.3959 240.523Z" fill="white"/>
<path d="M168.357 153.042L211.069 156.671C212.802 156.819 214.487 157.319 216.02 158.141C217.553 158.963 218.902 160.089 219.984 161.451C221.066 162.813 221.858 164.382 222.312 166.061C222.766 167.74 222.872 169.494 222.624 171.215L215.443 221.076H196.512L196.904 206.936C197.219 197.036 199.306 187.273 203.066 178.109H154.008C149.188 178.109 144.546 176.282 141.02 172.995C137.493 169.709 135.344 165.207 135.006 160.399L134.483 153.055L168.357 153.042Z" fill="#454F6B"/>
<path d="M153.989 158.081C154.682 159.859 155.88 161.396 157.436 162.503C158.991 163.609 160.836 164.237 162.743 164.309L206.03 165.934C206.944 165.968 207.84 166.193 208.662 166.593C209.484 166.994 210.214 167.562 210.804 168.26C211.394 168.959 211.831 169.773 212.088 170.651C212.345 171.528 212.416 172.45 212.297 173.357L206.794 215.096C206.784 215.183 206.743 215.263 206.677 215.321C206.612 215.379 206.528 215.41 206.441 215.41H206.382C206.336 215.404 206.291 215.389 206.25 215.366C206.21 215.343 206.174 215.312 206.145 215.275C206.117 215.238 206.096 215.195 206.084 215.15C206.072 215.105 206.069 215.058 206.075 215.012L211.605 173.265C211.709 172.457 211.643 171.637 211.413 170.855C211.183 170.074 210.792 169.349 210.267 168.726C209.741 168.104 209.092 167.597 208.361 167.239C207.629 166.881 206.831 166.679 206.017 166.646L162.73 165.02C160.684 164.944 158.706 164.271 157.038 163.084C155.37 161.898 154.086 160.249 153.343 158.342L152.69 156.717L153.212 156.11L153.989 158.081Z" fill="#797C99"/>
<path d="M233.003 236.998H215.639C213.927 236.997 212.251 236.508 210.808 235.588L209.816 234.935H231.763C232.256 235.572 232.672 236.264 233.003 236.998Z" fill="#8C404C"/>
<path d="M198.412 234.954H209.816V236.998H198.268L198.32 236.084C198.346 235.705 198.379 235.326 198.412 234.954Z" fill="#8C404C"/>
<path d="M200.749 223.289L201.467 221.095H213.015L219.047 227.336C220.109 228.432 221.396 229.285 222.82 229.836L227.226 231.54C229.025 232.237 230.595 233.419 231.763 234.954H198.412C198.731 230.988 199.515 227.072 200.749 223.289Z" fill="#A64F5A"/>
<path d="M200.749 223.289L201.467 221.095H213.015L216.024 224.203H200.468C200.559 223.909 200.651 223.596 200.749 223.289Z" fill="#8C404C"/>
<path d="M152.344 157.108C148.152 161.839 143.333 165.975 138.022 169.401C136.266 166.701 135.228 163.598 135.006 160.385L134.483 153.042H151.26L152.696 156.717L152.344 157.108Z" fill="#21255C"/>
<path d="M152.024 153.042H155.771C154.948 154.086 154.093 155.111 153.219 156.11L152.024 153.042Z" fill="#21255C"/>
<path d="M152.696 156.717L151.26 153.042H152.024L153.219 156.11L152.696 156.717Z" fill="#454F6B"/>
<path d="M166.562 83.7799C164.611 83.3238 162.882 82.1961 161.679 80.5942L172.006 82.0369L171.157 84.1846C169.614 84.2632 168.068 84.1269 166.562 83.7799Z" fill="#EBA58E"/>
<path d="M157.005 86.1692L159.734 80.2941L161.692 80.5682C162.895 82.1701 164.624 83.2978 166.575 83.7539C168.072 84.0985 169.61 84.2347 171.144 84.1586L169.284 88.8718L157.005 86.1692Z" fill="#F2C9AD"/>
<path d="M177.659 53.1833L178.965 64.3788L183.149 71.07L179.853 71.8664L180.218 74.9345C180.313 75.7276 180.251 76.5315 180.034 77.3004C179.818 78.0692 179.453 78.788 178.958 79.4155C178.464 80.043 177.851 80.5669 177.155 80.9573C176.458 81.3478 175.691 81.5971 174.898 81.691L167.593 82.5657C166.206 82.7306 164.8 82.6206 163.455 82.242C162.111 81.8634 160.854 81.2236 159.757 80.3591C158.66 79.4946 157.743 78.4225 157.061 77.2038C156.378 75.9852 155.942 74.644 155.778 73.2568L153.721 56.0361L177.659 53.1833Z" fill="#F2C9AD"/>
<path d="M171.086 58.7516L170.648 60.1029C169.885 62.4581 168.468 64.5478 166.562 66.1282L166.49 66.1935L166.653 69.4052C166.689 70.0547 166.529 70.7001 166.195 71.2584C165.862 71.8167 165.369 72.2625 164.78 72.5386L164.003 72.9107L160.393 75.9723C160.125 77.7474 159.27 79.3816 157.964 80.6137L157.658 80.901C155.086 77.9517 153.368 74.356 152.69 70.5019L152.429 69.0135L150.594 61.2191L151.978 56.9237L161.666 56.0294L171.086 58.7516Z" fill="#6A3649"/>
<path d="M156.6 71.5987C156.599 72.4653 156.855 73.3128 157.335 74.034C157.816 74.7552 158.499 75.3177 159.3 75.6502C160.1 75.9827 160.981 76.0704 161.831 75.9021C162.681 75.7338 163.462 75.3172 164.075 74.7049C164.689 74.0925 165.106 73.3121 165.276 72.4622C165.445 71.6123 165.359 70.7313 165.028 69.9305C164.696 69.1297 164.135 68.4452 163.415 67.9636C162.694 67.482 161.847 67.225 160.98 67.225C159.82 67.225 158.707 67.6856 157.885 68.5056C157.064 69.3257 156.602 70.4381 156.6 71.5987Z" fill="#F2C9AD"/>
<path d="M158.402 71.5987C158.408 72.1073 158.565 72.6026 158.852 73.0223C159.139 73.442 159.544 73.7674 160.016 73.9576C160.488 74.1478 161.005 74.1942 161.503 74.091C162.001 73.9879 162.458 73.7398 162.815 73.3779C163.172 73.016 163.415 72.5565 163.512 72.0573C163.608 71.558 163.555 71.0412 163.359 70.5719C163.163 70.1027 162.833 69.7019 162.409 69.4199C161.986 69.138 161.489 68.9876 160.98 68.9875C160.294 68.9961 159.638 69.275 159.155 69.7638C158.672 70.2526 158.402 70.9118 158.402 71.5987Z" fill="#EBA58E"/>
<path d="M168.807 67.7996C170.368 75.1501 176.184 81.4039 176.184 81.4039C175.035 83.0097 172.789 81.9457 172.789 81.9457C169.31 79.4455 166.784 71.4487 165.778 66.605C166.313 66.7395 166.83 66.9367 167.319 67.1925C167.795 67.441 168.293 67.6442 168.807 67.7996Z" fill="#797C99"/>
<path d="M165.308 63.0144L168.455 63.4322C168.376 64.8972 168.494 66.3661 168.807 67.7994C168.293 67.644 167.795 67.4408 167.319 67.1923C166.83 66.9365 166.313 66.7393 165.778 66.6048C165.488 65.4293 165.33 64.225 165.308 63.0144Z" fill="#454F6B"/>
<path d="M176.027 55.1679C177.248 54.3062 178.253 53.1768 179.454 52.289C180.062 51.8271 180.741 51.4676 181.465 51.225L186.687 54.2801C186.896 54.3998 187.061 54.5825 187.159 54.8021C187.257 55.0216 187.283 55.2666 187.233 55.5017C187.183 55.7368 187.059 55.95 186.88 56.1106C186.701 56.2711 186.476 56.3707 186.237 56.3951L182.908 56.7542C180.854 56.9749 178.931 57.8676 177.437 59.2935L175.818 60.8341L169.499 56.9174C171.815 57.1344 174.131 56.5136 176.027 55.1679Z" fill="#C7D2D7"/>
<path d="M160.373 48.7118C157.511 48.8984 154.71 49.6296 152.122 50.866C152.285 50.6571 152.455 50.4547 152.631 50.2524C153.88 48.8551 155.411 47.7374 157.122 46.9725C158.833 46.2075 160.686 45.8125 162.56 45.8134H168.618C170.989 45.8181 173.317 46.4534 175.362 47.6542L181.465 51.2381C180.741 51.4807 180.062 51.8402 179.455 52.3021C179.304 52.4131 179.161 52.5372 179.011 52.6547C176.948 51.8256 174.872 51.0357 172.744 50.3895C168.757 49.0829 164.565 48.5144 160.373 48.7118Z" fill="#D1F4F5"/>
<path d="M159.453 50.0696C156.581 50.2504 153.771 50.9818 151.175 52.2238C151.463 51.7483 151.779 51.2905 152.122 50.8529C154.71 49.6165 157.511 48.8854 160.373 48.6987C164.575 48.4931 168.778 49.0573 172.776 50.3633C174.904 51.0161 176.98 51.7995 179.043 52.6285C178.58 53.0072 178.129 53.4119 177.685 53.8101C175.766 53.0463 173.827 52.3217 171.856 51.7212C167.857 50.4195 163.653 49.8598 159.453 50.0696Z" fill="#93E3EF"/>
<path d="M149.922 54.9458C150.237 53.9944 150.657 53.0812 151.175 52.2236C153.77 50.9771 156.58 50.2413 159.453 50.0563C163.643 49.8548 167.835 50.4189 171.823 51.721C173.782 52.3215 175.74 53.0266 177.653 53.8099C177.14 54.2919 176.597 54.741 176.027 55.1547C175.136 55.786 174.142 56.2586 173.09 56.5517L169.826 55.7096C158.846 51.7536 153.571 51.6165 149.922 54.9458Z" fill="#D1F4F5"/>
<path d="M169.826 55.7097L173.09 56.5518C171.912 56.8902 170.68 57.0032 169.46 56.8848C158.474 52.9223 153.199 52.7917 149.55 56.1536C149.648 55.7424 149.765 55.3442 149.896 54.946C153.571 51.6167 158.846 51.7538 169.826 55.7097Z" fill="#93E3EF"/>
<path d="M169.486 56.8846L175.805 60.8014L173.507 62.9948C172.724 63.7399 171.77 64.2827 170.729 64.5762C169.689 64.8697 168.592 64.905 167.534 64.679L165.178 64.1764C163.889 63.9008 162.551 63.9529 161.287 64.3282C160.024 64.7034 158.875 65.3896 157.945 66.3241L156.385 67.8843C156.038 68.2342 155.625 68.5119 155.17 68.7013C154.715 68.8906 154.227 68.9879 153.734 68.9875H152.429L150.438 64.6268C149.233 61.9674 148.934 58.9858 149.589 56.1405C153.225 52.7916 158.5 52.9222 169.486 56.8846ZM161.424 60.1486C163.458 61.3492 165.787 61.9574 168.148 61.9046C168.657 61.9046 170.315 61.6762 169.597 60.7296C169.323 60.3706 168.481 60.1943 168.07 60.0442C167.495 59.8353 166.914 59.646 166.32 59.4828C164.942 59.102 163.529 58.8571 162.103 58.7516C161.836 58.714 161.564 58.7363 161.307 58.8169C161.177 58.8563 161.062 58.9353 160.979 59.043C160.896 59.1506 160.848 59.2816 160.843 59.4175C160.85 59.7635 161.15 59.992 161.424 60.1552V60.1486ZM151.978 61.2584C152.058 62.9596 152.454 64.631 153.147 66.187C154.177 66.043 155.149 65.6186 155.955 64.9601C156.76 64.3016 157.37 63.4343 157.716 62.453C155.972 61.4745 153.968 61.0595 151.978 61.2649V61.2584Z" fill="#99A3B0"/>
<path d="M172.502 95.563L172.861 96.3072C176.002 102.883 176.725 110.356 174.905 117.412L170.237 135.573C169.628 137.937 169.693 140.425 170.426 142.754L171.001 144.595C171.374 145.774 171.444 147.029 171.204 148.243C170.964 149.457 170.423 150.591 169.63 151.54L168.357 153.061H134.483V128.705L147.748 93.5785L171.171 95.0277L172.502 95.563Z" fill="white"/>
<path d="M134.483 128.705L147.748 93.5785L167.574 94.8057C171.34 104.741 171.699 115.891 169.206 126.244C166.842 136.036 162.025 145.13 155.771 153.042H134.483V128.705Z" fill="#E4E4E0"/>
<path d="M171.171 95.0277C175.042 108.41 169.31 141.317 133.772 156.391C123.288 154.967 123.98 148.557 112.628 146.977C101.276 145.397 104.096 132.583 104.096 132.583C130.573 127.961 138.165 110.767 141.769 99.6821C145.372 88.5976 154.825 88.5193 154.825 88.5193L171.171 95.0277Z" fill="#454F6B"/>
<path d="M156.208 106.595L156.385 105.185L170.217 117.02C169.09 120.975 167.538 124.797 165.589 128.418L158.728 117.784C156.603 114.465 155.711 110.505 156.208 106.595Z" fill="#21255C"/>
<path d="M134.242 131.786C137.13 134.8 140.769 136.99 144.785 138.132C143.953 139.259 142.961 140.26 141.84 141.102C139.005 141.09 136.187 140.67 133.472 139.855C133.034 137.897 132.545 136.095 132.107 134.163C132.646 133.231 133.373 132.422 134.242 131.786Z" fill="#797C99"/>
<path d="M134.222 138.445C134.222 138.843 134.66 139.163 135.195 139.163C135.73 139.163 136.161 138.843 136.161 138.445C136.161 138.047 135.73 137.72 135.195 137.72C134.66 137.72 134.222 138.047 134.222 138.445Z" fill="#454F6B"/>
<path d="M157.005 86.1429L169.31 88.8977L171.171 95.0275L154.838 88.5452L157.005 86.1429Z" fill="white"/>
<path d="M169.31 88.8977L172.502 91.3849V95.5628L171.17 95.0275L169.31 88.8977Z" fill="#CC6164"/>
<path d="M111.472 82.2915C131.37 72.8391 155.771 99.1533 171.171 95.0276L172.476 95.5629C157.553 107.313 132.323 79.9284 115.624 93.1606L107.268 90.5886L111.472 82.2915Z" fill="#CC6164"/>
<path d="M111.472 82.2916L111.205 88.5454L115.65 93.1607L107.294 90.5887L111.472 82.2916Z" fill="#A34262"/>
<path d="M212.838 120.767L215.058 120.258L224.197 112.079C224.752 111.577 225.483 111.316 226.23 111.351C226.978 111.387 227.681 111.716 228.186 112.268L234.244 118.861C234.623 119.276 234.872 119.793 234.958 120.348C235.044 120.904 234.963 121.472 234.727 121.982L232.768 126.244C232.479 126.867 231.973 127.364 231.346 127.644C230.718 127.923 230.011 127.967 229.354 127.765L225.686 126.629L224.83 127.106C223.209 128.004 221.408 128.529 219.558 128.641C217.708 128.754 215.856 128.453 214.138 127.759L212.838 120.767Z" fill="#F2C9AD"/>
<path d="M212.838 120.767L215.058 120.258C216.083 121.388 216.869 122.714 217.369 124.155C217.87 125.597 218.074 127.124 217.969 128.647C216.637 128.57 215.325 128.279 214.085 127.785L212.838 120.767Z" fill="#EBA58E"/>
<path d="M170.446 102.319L186.185 123.209L208.04 119.292L211.239 134.039L186.655 135.801C185.06 135.917 183.459 135.685 181.962 135.121C180.465 134.558 179.108 133.676 177.986 132.537L158.434 112.692C157.603 111.849 156.97 110.829 156.583 109.71C156.196 108.59 156.064 107.398 156.198 106.221C156.331 105.043 156.726 103.911 157.354 102.906C157.981 101.901 158.826 101.049 159.825 100.413C161.511 99.3368 163.54 98.9354 165.508 99.2886C167.477 99.6419 169.24 100.724 170.446 102.319Z" fill="#454F6B"/>
<path d="M208.249 120.252L213.152 119.325C214.76 122.296 215.569 125.634 215.502 129.012L210.371 130.018L208.249 120.252Z" fill="white"/>
<path d="M218.988 125.949C218.517 123.033 220.499 120.287 223.415 119.816C226.331 119.344 229.077 121.326 229.548 124.242C230.019 127.158 228.038 129.904 225.121 130.376C222.205 130.847 219.459 128.865 218.988 125.949Z" fill="#21255C"/>
<path d="M26.9286 282.158H347.223C347.348 282.158 347.472 282.133 347.587 282.086C347.702 282.038 347.807 281.967 347.895 281.879C347.983 281.79 348.052 281.685 348.099 281.569C348.147 281.454 348.171 281.33 348.17 281.205C348.17 280.954 348.07 280.713 347.892 280.536C347.715 280.358 347.474 280.259 347.223 280.259H26.9286C26.6776 280.259 26.4369 280.358 26.2594 280.536C26.0818 280.713 25.9821 280.954 25.9821 281.205C25.9813 281.33 26.0051 281.454 26.0523 281.569C26.0995 281.685 26.1691 281.79 26.257 281.879C26.345 281.967 26.4496 282.038 26.5649 282.086C26.6802 282.133 26.8038 282.158 26.9286 282.158Z" fill="#495375"/>
<path d="M189.41 280.258H273.62C270.813 278.052 267.092 277.21 263.541 277.249C259.99 277.288 256.295 277.602 252.907 276.459C249.989 275.473 247.541 273.476 245.119 271.583C242.697 269.69 240.125 267.797 237.129 267.098C234.133 266.4 230.601 267.183 228.858 269.709C228.114 270.813 227.677 272.249 226.488 272.862C223.649 274.318 220.417 269.5 217.545 270.904C215.861 271.726 215.73 274.07 214.66 275.611C213.302 277.569 210.521 278.006 208.171 277.569C205.821 277.132 203.654 275.976 201.317 275.454C196.728 274.462 192.524 276.786 189.41 280.258Z" fill="white"/>
<path d="M35.1996 280.258H119.41C116.597 278.052 112.882 277.21 109.325 277.249C105.767 277.288 102.079 277.602 98.6905 276.459C95.7725 275.473 93.3311 273.476 90.9027 271.583C88.4743 269.69 85.9153 267.797 82.9124 267.098C79.9096 266.4 76.3845 267.183 74.6415 269.709C73.8973 270.813 73.46 272.249 72.2719 272.862C69.4322 274.318 66.2009 269.5 63.3286 270.904C61.6443 271.726 61.5203 274.07 60.4497 275.611C59.0854 277.569 56.3045 278.006 53.9218 277.569C51.5391 277.132 49.4044 275.976 47.0674 275.454C42.5305 274.462 38.3395 276.786 35.1996 280.258Z" fill="white"/>
<defs>
<linearGradient id="paint0_linear_112_2267" x1="297" y1="-60" x2="71.5" y2="332.5" gradientUnits="userSpaceOnUse">
<stop stop-color="#00D1FF"/>
<stop offset="1" stop-color="#FBEED1" stop-opacity="0"/>
</linearGradient>
<linearGradient id="paint1_linear_112_2267" x1="187.079" y1="240.523" x2="187.079" y2="292.5" gradientUnits="userSpaceOnUse">
<stop stop-color="#00B5C9"/>
<stop offset="1" stop-color="#68EDFC" stop-opacity="0"/>
</linearGradient>
</defs>
</svg>
