<svg width="18" height="18" viewBox="0 0 18 18" fill="none" xmlns="http://www.w3.org/2000/svg">
<path d="M17.7057 10.4919V7.45991H15.1825C15.0261 6.80087 14.7644 6.17125 14.4073 5.59524L16.1857 3.82152L14.0729 1.69911L12.2793 3.47282C11.6999 3.12029 11.0692 2.85948 10.4097 2.69967V0.183105H7.36966V2.69967C6.70534 2.85939 6.06963 3.12015 5.48487 3.47282L3.70646 1.69911L1.57846 3.82152L3.35686 5.59524C3.00595 6.1744 2.74462 6.80302 2.58167 7.45991H0.104065V10.4919H2.62726C2.79022 11.1488 3.05155 11.7774 3.40246 12.3566L1.62406 14.1455L3.75206 16.2527L5.53046 14.479C6.11522 14.8317 6.75093 15.0924 7.41526 15.2521V17.7687H10.4553V15.1915C11.1148 15.0317 11.7455 14.7709 12.3249 14.4183L14.1185 16.1921L16.2313 14.0848L14.4529 12.296C14.81 11.7199 15.0717 11.0903 15.2281 10.4313L17.7057 10.4919ZM8.90487 12.4324C8.22309 12.4324 7.55659 12.2309 6.98951 11.8535C6.42243 11.476 5.98019 10.9394 5.71859 10.3115C5.457 9.68354 5.38778 8.9924 5.51969 8.32527C5.6516 7.65813 5.97871 7.04492 6.45974 6.56305C6.94077 6.08117 7.55415 5.75224 8.22245 5.61774C8.89076 5.48325 9.58404 5.54924 10.2148 5.80738C10.8455 6.06553 11.3854 6.50424 11.7664 7.06816C12.1473 7.63209 12.3523 8.29593 12.3553 8.97591C12.3433 9.8807 11.9745 10.7444 11.3287 11.3799C10.6829 12.0155 9.81212 12.3718 8.90487 12.3718V12.4324Z" fill="#29ABE2"/>
</svg>
